<svg width="30" height="31" viewBox="0 0 30 31" fill="none" xmlns="http://www.w3.org/2000/svg">
<g id="add-to-cart 1" clip-path="url(#clip0_518_14473)">
<g id="Group">
<path id="Vector" d="M27.15 7.85L24.3 18.5H10.05L5.55 2H0V5H3.3L7.8 21.5H26.55L30 8.75L27.15 7.85Z" fill="white"/>
<path id="Vector_2" d="M11.25 29C12.4926 29 13.5 27.9926 13.5 26.75C13.5 25.5074 12.4926 24.5 11.25 24.5C10.0074 24.5 9 25.5074 9 26.75C9 27.9926 10.0074 29 11.25 29Z" fill="white"/>
<path id="Vector_3" d="M23.25 29C24.4926 29 25.5 27.9926 25.5 26.75C25.5 25.5074 24.4926 24.5 23.25 24.5C22.0074 24.5 21 25.5074 21 26.75C21 27.9926 22.0074 29 23.25 29Z" fill="white"/>
<path id="Vector_4" d="M15 14H18V11H21V8H18V5H15V8H12V11H15V14Z" fill="white"/>
</g>
</g>
<defs>
<clipPath id="clip0_518_14473">
<rect width="30" height="30" fill="white" transform="translate(0 0.5)"/>
</clipPath>
</defs>
</svg>
