<svg width="1001" height="98" viewBox="0 0 1001 98" fill="none" xmlns="http://www.w3.org/2000/svg">
<mask id="mask0_293_903" style="mask-type:alpha" maskUnits="userSpaceOnUse" x="0" y="0" width="1284" height="98">
<path d="M1284 97.2944L0 97.2944V52.0434L48.981 -0.000152588L1284 -0.000152588V97.2944Z" fill="white"/>
</mask>
<g mask="url(#mask0_293_903)">
<g opacity="0.2">
<path d="M209.743 295.59L-326.502 -240.609" stroke="white" stroke-opacity="0.4"/>
<path d="M222.19 295.59L-314.055 -240.609" stroke="white" stroke-opacity="0.4"/>
<path d="M234.645 295.59L-301.6 -240.609" stroke="white" stroke-opacity="0.4"/>
<path d="M247.091 295.59L-289.154 -240.609" stroke="white" stroke-opacity="0.4"/>
<path d="M259.546 295.59L-276.707 -240.609" stroke="white" stroke-opacity="0.4"/>
<path d="M271.993 295.59L-264.252 -240.609" stroke="white" stroke-opacity="0.4"/>
<path d="M284.439 295.59L-251.806 -240.609" stroke="white" stroke-opacity="0.4"/>
<path d="M296.895 295.59L-239.35 -240.609" stroke="white" stroke-opacity="0.4"/>
<path d="M309.341 295.59L-226.904 -240.609" stroke="white" stroke-opacity="0.4"/>
<path d="M321.796 295.59L-214.449 -240.609" stroke="white" stroke-opacity="0.4"/>
<path d="M334.242 295.59L-202.002 -240.609" stroke="white" stroke-opacity="0.4"/>
<path d="M346.698 295.59L-189.556 -240.609" stroke="white" stroke-opacity="0.4"/>
<path d="M359.144 295.59L-177.101 -240.609" stroke="white" stroke-opacity="0.4"/>
<path d="M371.599 295.59L-164.655 -240.609" stroke="white" stroke-opacity="0.4"/>
<path d="M384.045 295.59L-152.199 -240.609" stroke="white" stroke-opacity="0.4"/>
<path d="M396.492 295.59L-139.753 -240.609" stroke="white" stroke-opacity="0.4"/>
<path d="M408.945 295.59L-127.298 -240.609" stroke="white" stroke-opacity="0.4"/>
<path d="M421.395 295.59L-114.852 -240.609" stroke="white" stroke-opacity="0.4"/>
<path d="M433.846 295.59L-102.405 -240.609" stroke="white" stroke-opacity="0.4"/>
<path d="M446.296 295.59L-89.9498 -240.609" stroke="white" stroke-opacity="0.4"/>
<path d="M458.746 295.59L-77.5036 -240.609" stroke="white" stroke-opacity="0.4"/>
<path d="M471.196 295.59L-65.0483 -240.609" stroke="white" stroke-opacity="0.4"/>
<path d="M483.646 295.59L-52.6019 -240.609" stroke="white" stroke-opacity="0.4"/>
<path d="M496.097 295.59L-40.1465 -240.609" stroke="white" stroke-opacity="0.4"/>
<path d="M508.547 295.59L-27.7007 -240.609" stroke="white" stroke-opacity="0.4"/>
<path d="M520.997 295.59L-15.254 -240.609" stroke="white" stroke-opacity="0.4"/>
<path d="M533.447 295.59L-2.79895 -240.609" stroke="white" stroke-opacity="0.4"/>
<path d="M545.897 295.59L9.64775 -240.609" stroke="white" stroke-opacity="0.4"/>
<path d="M558.348 295.59L22.1028 -240.609" stroke="white" stroke-opacity="0.4"/>
<path d="M570.797 295.59L34.549 -240.609" stroke="white" stroke-opacity="0.4"/>
<path d="M583.248 295.59L47.0044 -240.609" stroke="white" stroke-opacity="0.4"/>
<path d="M595.698 295.59L59.4506 -240.609" stroke="white" stroke-opacity="0.4"/>
<path d="M608.148 295.59L71.8973 -240.609" stroke="white" stroke-opacity="0.4"/>
<path d="M620.598 295.59L84.3523 -240.609" stroke="white" stroke-opacity="0.4"/>
<path d="M633.049 295.59L96.7987 -240.609" stroke="white" stroke-opacity="0.4"/>
<path d="M645.499 295.59L109.254 -240.609" stroke="white" stroke-opacity="0.4"/>
<path d="M657.949 295.59L121.7 -240.609" stroke="white" stroke-opacity="0.4"/>
<path d="M670.399 295.59L134.155 -240.609" stroke="white" stroke-opacity="0.4"/>
<path d="M682.85 295.59L146.602 -240.609" stroke="white" stroke-opacity="0.4"/>
<path d="M695.299 295.59L159.057 -240.609" stroke="white" stroke-opacity="0.4"/>
<path d="M707.749 295.59L171.503 -240.609" stroke="white" stroke-opacity="0.4"/>
<path d="M720.2 295.59L183.95 -240.609" stroke="white" stroke-opacity="0.4"/>
<path d="M732.65 295.59L196.405 -240.609" stroke="white" stroke-opacity="0.4"/>
<path d="M745.1 295.59L208.851 -240.609" stroke="white" stroke-opacity="0.4"/>
<path d="M757.55 295.59L221.306 -240.609" stroke="white" stroke-opacity="0.4"/>
<path d="M770 295.59L233.753 -240.609" stroke="white" stroke-opacity="0.4"/>
<path d="M782.45 295.59L246.208 -240.609" stroke="white" stroke-opacity="0.4"/>
<path d="M794.901 295.59L258.654 -240.609" stroke="white" stroke-opacity="0.4"/>
<path d="M807.351 295.59L271.101 -240.609" stroke="white" stroke-opacity="0.4"/>
<path d="M819.801 295.59L283.556 -240.609" stroke="white" stroke-opacity="0.4"/>
<path d="M832.251 295.59L296.002 -240.609" stroke="white" stroke-opacity="0.4"/>
<path d="M844.701 295.59L308.457 -240.609" stroke="white" stroke-opacity="0.4"/>
<path d="M857.151 295.59L320.904 -240.609" stroke="white" stroke-opacity="0.4"/>
<path d="M869.602 295.59L333.359 -240.609" stroke="white" stroke-opacity="0.4"/>
<path d="M882.052 295.59L345.805 -240.609" stroke="white" stroke-opacity="0.4"/>
<path d="M894.502 295.59L358.252 -240.609" stroke="white" stroke-opacity="0.4"/>
<path d="M906.952 295.59L370.707 -240.609" stroke="white" stroke-opacity="0.4"/>
<path d="M919.403 295.59L383.154 -240.609" stroke="white" stroke-opacity="0.4"/>
<path d="M931.853 295.59L395.608 -240.609" stroke="white" stroke-opacity="0.4"/>
<path d="M944.302 295.59L408.055 -240.609" stroke="white" stroke-opacity="0.4"/>
<path d="M956.753 295.59L420.506 -240.609" stroke="white" stroke-opacity="0.4"/>
<path d="M969.203 295.59L432.956 -240.609" stroke="white" stroke-opacity="0.4"/>
<path d="M981.653 295.59L445.406 -240.609" stroke="white" stroke-opacity="0.4"/>
<path d="M994.104 295.59L457.857 -240.609" stroke="white" stroke-opacity="0.4"/>
<path d="M1006.55 295.59L470.307 -240.609" stroke="white" stroke-opacity="0.4"/>
<path d="M1019 295.59L482.757 -240.609" stroke="white" stroke-opacity="0.4"/>
<path d="M1031.45 295.59L495.206 -240.609" stroke="white" stroke-opacity="0.4"/>
<path d="M1043.9 295.59L507.658 -240.609" stroke="white" stroke-opacity="0.4"/>
<path d="M1056.35 295.59L520.107 -240.609" stroke="white" stroke-opacity="0.4"/>
<path d="M1068.8 295.59L532.558 -240.609" stroke="white" stroke-opacity="0.4"/>
<path d="M1081.25 295.59L545.008 -240.609" stroke="white" stroke-opacity="0.4"/>
<path d="M1093.7 295.59L557.458 -240.609" stroke="white" stroke-opacity="0.4"/>
<path d="M1106.15 295.59L569.908 -240.609" stroke="white" stroke-opacity="0.4"/>
<path d="M1118.61 295.59L582.359 -240.609" stroke="white" stroke-opacity="0.4"/>
<path d="M1131.06 295.59L594.809 -240.609" stroke="white" stroke-opacity="0.4"/>
<path d="M1143.51 295.59L607.259 -240.609" stroke="white" stroke-opacity="0.4"/>
<path d="M1155.96 295.59L619.709 -240.609" stroke="white" stroke-opacity="0.4"/>
<path d="M1168.41 295.59L632.159 -240.609" stroke="white" stroke-opacity="0.4"/>
<path d="M1180.86 295.59L644.609 -240.609" stroke="white" stroke-opacity="0.4"/>
<path d="M1193.31 295.59L657.059 -240.609" stroke="white" stroke-opacity="0.4"/>
<path d="M1205.76 295.59L669.51 -240.609" stroke="white" stroke-opacity="0.4"/>
<path d="M1218.21 295.59L681.96 -240.609" stroke="white" stroke-opacity="0.4"/>
<path d="M1230.66 295.59L694.41 -240.609" stroke="white" stroke-opacity="0.4"/>
<path d="M1243.11 295.59L706.861 -240.609" stroke="white" stroke-opacity="0.4"/>
<path d="M1255.56 295.59L719.31 -240.609" stroke="white" stroke-opacity="0.4"/>
<path d="M1268.01 295.59L731.76 -240.609" stroke="white" stroke-opacity="0.4"/>
<path d="M1280.46 295.59L744.211 -240.609" stroke="white" stroke-opacity="0.4"/>
<path d="M1292.91 295.59L756.661 -240.609" stroke="white" stroke-opacity="0.4"/>
<path d="M1305.36 295.59L769.111 -240.609" stroke="white" stroke-opacity="0.4"/>
<path d="M1317.81 295.59L781.562 -240.609" stroke="white" stroke-opacity="0.4"/>
<path d="M1330.26 295.59L794.011 -240.609" stroke="white" stroke-opacity="0.4"/>
<path d="M1342.71 295.59L806.461 -240.609" stroke="white" stroke-opacity="0.4"/>
<path d="M1355.16 295.59L818.911 -240.609" stroke="white" stroke-opacity="0.4"/>
<path d="M1367.61 295.59L831.362 -240.609" stroke="white" stroke-opacity="0.4"/>
<path d="M1380.06 295.59L843.812 -240.609" stroke="white" stroke-opacity="0.4"/>
<path d="M1392.51 295.59L856.262 -240.609" stroke="white" stroke-opacity="0.4"/>
<path d="M1404.96 295.59L868.713 -240.609" stroke="white" stroke-opacity="0.4"/>
<path d="M1417.41 295.59L881.163 -240.609" stroke="white" stroke-opacity="0.4"/>
<path d="M1429.86 295.59L893.612 -240.609" stroke="white" stroke-opacity="0.4"/>
<path d="M1442.31 295.59L906.063 -240.609" stroke="white" stroke-opacity="0.4"/>
<path d="M1454.76 295.59L918.513 -240.609" stroke="white" stroke-opacity="0.4"/>
<path d="M1467.21 295.59L930.963 -240.609" stroke="white" stroke-opacity="0.4"/>
<path d="M1479.66 295.59L943.414 -240.609" stroke="white" stroke-opacity="0.4"/>
<path d="M1492.11 295.59L955.864 -240.609" stroke="white" stroke-opacity="0.4"/>
<path d="M1504.56 295.59L968.314 -240.609" stroke="white" stroke-opacity="0.4"/>
<path d="M1517.01 295.59L980.763 -240.609" stroke="white" stroke-opacity="0.4"/>
<path d="M1529.46 295.59L993.214 -240.609" stroke="white" stroke-opacity="0.4"/>
</g>
</g>
</svg>
