<svg width="305" height="58" viewBox="0 0 305 58" fill="none" xmlns="http://www.w3.org/2000/svg">
<g filter="url(#filter0_b_1921_3059)">
<path d="M12.6543 0H301.414L304.5 17.5L292.772 58H3.7037L0 41.5L12.6543 0Z" fill="url(#paint0_linear_1921_3059)" fill-opacity="0.26"/>
<path d="M1.03361 41.5389L13.3948 1H300.574L303.475 17.4449L292.02 57H4.50412L1.03361 41.5389Z" stroke="url(#paint1_linear_1921_3059)" stroke-width="2"/>
</g>
<path d="M81.8 23.5C79.32 23.5 77.3 25.52 77.3 28C77.3 30.48 79.32 32.5 81.8 32.5H88.8V35H81.8C77.94 35 74.8 31.86 74.8 28C74.8 24.14 77.94 21 81.8 21H88.8V23.5H81.8ZM96.4419 21C100.302 21 103.442 24.14 103.442 28C103.442 31.86 100.302 35 96.4419 35C92.5819 35 89.4419 31.86 89.4419 28C89.4419 24.14 92.5819 21 96.4419 21ZM96.4419 32.5C98.9219 32.5 100.942 30.48 100.942 28C100.942 25.52 98.9219 23.5 96.4419 23.5C93.9619 23.5 91.9419 25.52 91.9419 28C91.9419 30.48 93.9619 32.5 96.4419 32.5ZM116.461 22.92L118.961 21V35H116.461V26.08L114.001 27.96L111.961 29.54L109.921 27.96L107.461 26.08V35H104.961V21L107.461 22.92L111.961 26.38L116.461 22.92ZM123.457 35H120.957V21H123.457V35ZM136.949 21L139.449 21.02V35.02L136.949 33.1L127.949 26.16V35.02H125.449V21.06L127.949 22.98L136.949 29.92V21ZM148.445 23.5C145.965 23.5 143.945 25.52 143.945 28C143.945 30.48 145.965 32.5 148.445 32.5H152.945V29.82H148.445V27.32H155.445V35H148.445C144.585 35 141.445 31.86 141.445 28C141.445 24.14 144.585 21 148.445 21H155.445V23.5H148.445ZM180.428 24.86L177.928 24.88V24.8C177.928 24.1 177.348 23.52 176.648 23.52H170.968C170.268 23.52 169.688 24.1 169.688 24.8V24.88C169.688 25.58 170.268 26.16 170.968 26.16H176.008C177.308 26.16 178.468 26.72 179.268 27.6C179.328 27.66 179.368 27.72 179.428 27.78C180.048 28.54 180.428 29.52 180.428 30.58C180.428 33.02 178.448 35 176.008 35H171.628C169.188 35 167.208 33.02 167.208 30.58H169.708C169.708 31.64 170.568 32.5 171.628 32.5H176.008C177.068 32.5 177.947 31.64 177.947 30.58C177.947 29.52 177.068 28.66 176.008 28.66H170.968C169.948 28.66 169.028 28.26 168.348 27.6C168.168 27.42 168.008 27.22 167.868 27C167.448 26.4 167.208 25.66 167.208 24.86V24.78C167.208 22.7 168.888 21 170.968 21H176.648C178.728 21 180.428 22.7 180.428 24.78V24.86ZM188.942 21C192.802 21 195.942 24.14 195.942 28C195.942 31.86 192.802 35 188.942 35C185.082 35 181.942 31.86 181.942 28C181.942 24.14 185.082 21 188.942 21ZM188.942 32.5C191.422 32.5 193.442 30.48 193.442 28C193.442 25.52 191.422 23.5 188.942 23.5C186.462 23.5 184.442 25.52 184.442 28C184.442 30.48 186.462 32.5 188.942 32.5ZM203.981 21C207.841 21 210.981 24.14 210.981 28C210.981 31.86 207.841 35 203.981 35C200.121 35 196.981 31.86 196.981 28C196.981 24.14 200.121 21 203.981 21ZM203.981 32.5C206.461 32.5 208.481 30.48 208.481 28C208.481 25.52 206.461 23.5 203.981 23.5C201.501 23.5 199.481 25.52 199.481 28C199.481 30.48 201.501 32.5 203.981 32.5ZM224 21L226.5 21.02V35.02L224 33.1L215 26.16V35.02H212.5V21.06L215 22.98L224 29.92V21Z" fill="white"/>
<defs>
<filter id="filter0_b_1921_3059" x="-20" y="-20" width="344.5" height="98" filterUnits="userSpaceOnUse" color-interpolation-filters="sRGB">
<feFlood flood-opacity="0" result="BackgroundImageFix"/>
<feGaussianBlur in="BackgroundImageFix" stdDeviation="10"/>
<feComposite in2="SourceAlpha" operator="in" result="effect1_backgroundBlur_1921_3059"/>
<feBlend mode="normal" in="SourceGraphic" in2="effect1_backgroundBlur_1921_3059" result="shape"/>
</filter>
<linearGradient id="paint0_linear_1921_3059" x1="6.40923" y1="29" x2="299.097" y2="29.0001" gradientUnits="userSpaceOnUse">
<stop stop-color="#3C56FF"/>
<stop offset="1" stop-color="#895FE3"/>
</linearGradient>
<linearGradient id="paint1_linear_1921_3059" x1="3.56068" y1="29" x2="300.522" y2="29" gradientUnits="userSpaceOnUse">
<stop stop-color="#AB84FF"/>
<stop offset="1" stop-color="#3C56FF" stop-opacity="0.2"/>
</linearGradient>
</defs>
</svg>
