<svg width="303" height="58" viewBox="0 0 303 58" fill="none" xmlns="http://www.w3.org/2000/svg">
<g filter="url(#filter0_b_293_221)">
<path d="M12.6543 0H299.642L302.728 17.5L291 58H3.7037L0 41.5L12.6543 0Z" fill="url(#paint0_linear_293_221)" fill-opacity="0.26"/>
<path d="M1.03361 41.5389L13.3948 1H298.803L301.703 17.4449L290.249 57H4.50412L1.03361 41.5389Z" stroke="url(#paint1_linear_293_221)" stroke-width="2"/>
</g>
<path d="M112 26.82C113.2 27.62 114 28.98 114 30.54C114 33 112 35 109.54 35H100V21H108.82C110.9 21 112.6 22.7 112.6 24.78C112.6 25.54 112.38 26.24 112 26.82ZM102.5 23.5V26.06H108.84C109.54 26.06 110.12 25.48 110.12 24.78C110.12 24.08 109.54 23.5 108.84 23.5H102.5ZM109.54 32.5V32.48C110.62 32.48 111.5 31.6 111.5 30.52C111.5 29.44 110.62 28.56 109.54 28.56H102.5V32.5H109.54ZM127.008 21H129.508V28C129.508 31.86 126.368 35 122.508 35C118.648 35 115.508 31.86 115.508 28V21H118.008V28C118.008 30.48 120.028 32.5 122.508 32.5C124.988 32.5 127.008 30.48 127.008 28V21ZM140.685 20.98H143.825L138.405 28L138.105 28.38V34.98H135.605V28.42L135.265 28L129.845 20.98H133.005L136.845 25.96L140.685 20.98ZM129.825 35.04V35H129.865L129.825 35.04ZM143.825 35.04L143.805 35H143.825V35.04ZM166.285 21L168.785 21.02V35.02L166.285 33.1L157.285 26.16V35.02H154.785V21.06L157.285 22.98L166.285 29.92V21ZM177.281 21C181.141 21 184.281 24.14 184.281 28C184.281 31.86 181.141 35 177.281 35C173.421 35 170.281 31.86 170.281 28C170.281 24.14 173.421 21 177.281 21ZM177.281 32.5C179.761 32.5 181.781 30.48 181.781 28C181.781 25.52 179.761 23.5 177.281 23.5C174.801 23.5 172.781 25.52 172.781 28C172.781 30.48 174.801 32.5 177.281 32.5ZM201.799 21L198.519 31.98L197.619 35L195.779 32.44L192.999 28.62L190.239 32.44L188.399 34.98L187.499 31.98L184.239 21H186.839L189.359 29.44L191.479 26.5L191.879 25.94L193.019 24.38L194.159 25.94L194.559 26.5L196.679 29.44L199.199 21H201.799Z" fill="white"/>
<defs>
<filter id="filter0_b_293_221" x="-20" y="-20" width="342.729" height="98" filterUnits="userSpaceOnUse" color-interpolation-filters="sRGB">
<feFlood flood-opacity="0" result="BackgroundImageFix"/>
<feGaussianBlur in="BackgroundImageFix" stdDeviation="10"/>
<feComposite in2="SourceAlpha" operator="in" result="effect1_backgroundBlur_293_221"/>
<feBlend mode="normal" in="SourceGraphic" in2="effect1_backgroundBlur_293_221" result="shape"/>
</filter>
<linearGradient id="paint0_linear_293_221" x1="7.15645" y1="29" x2="333.967" y2="29.0001" gradientUnits="userSpaceOnUse">
<stop stop-color="#3C56FF"/>
<stop offset="1" stop-color="#895FE3"/>
</linearGradient>
<linearGradient id="paint1_linear_293_221" x1="3.9758" y1="29" x2="335.558" y2="29" gradientUnits="userSpaceOnUse">
<stop stop-color="#AB84FF"/>
<stop offset="1" stop-color="#3C56FF" stop-opacity="0.2"/>
</linearGradient>
</defs>
</svg>
