<svg width="47" height="47" viewBox="0 0 47 47" fill="none" xmlns="http://www.w3.org/2000/svg">
<g id="chat (2) 1">
<g id="Group">
<g id="Group_2">
<path id="Vector" d="M29.0996 2.84766H4.13086C1.84503 2.84766 0 4.69268 0 6.97852V23.502C0 25.7876 1.84503 27.6328 4.13086 27.6328H5.50781V31.7637C5.50781 32.7585 6.53787 33.4789 7.5457 32.9754C7.57324 32.9478 7.62841 32.9478 7.65595 32.9202C15.2307 27.8406 13.5331 28.9732 15.2292 27.853C15.4494 27.7153 15.6973 27.6328 15.9727 27.6328H29.0996C31.3854 27.6328 33.2305 25.7876 33.2305 23.502V6.97852C33.2305 4.69268 31.3854 2.84766 29.0996 2.84766ZM18.084 19.3711H6.88477C5.06967 19.3711 5.06223 16.6172 6.88477 16.6172H18.084C19.8991 16.6172 19.9065 19.3711 18.084 19.3711ZM26.3457 13.8633H6.88477C5.06967 13.8633 5.06223 11.1094 6.88477 11.1094H26.3457C28.1608 11.1094 28.1682 13.8633 26.3457 13.8633Z" fill="#895FE3"/>
</g>
</g>
<g id="Group_3">
<g id="Group_4">
<path id="Vector_2" d="M42.8691 13.8633H35.9844V23.502C35.9844 27.3023 32.9 30.3867 29.0996 30.3867H16.3857L13.7695 32.1217V34.5176C13.7695 36.8032 15.6146 38.6484 17.9004 38.6484H31.4403L39.344 43.9358C40.4228 44.5348 41.4922 43.8064 41.4922 42.7793V38.6484H42.8691C45.155 38.6484 47 36.8032 47 34.5176V17.9941C47 15.7084 45.155 13.8633 42.8691 13.8633Z" fill="#895FE3"/>
</g>
</g>
</g>
</svg>
