<svg width="71" height="39" viewBox="0 0 71 39" fill="none" xmlns="http://www.w3.org/2000/svg">
<g filter="url(#filter0_b_1921_3670)">
<path d="M4.06667 13.0003L20 13L22 18.5L18.2444 25.9999L2.13333 26.0002L0 20.4202L4.06667 13.0003Z" fill="#0C0C0C"/>
<path d="M0.549628 20.4577L4.3628 13.5003L19.6498 13.5L21.4565 18.4686L17.9356 25.4999L2.47747 25.5002L0.549628 20.4577Z" stroke="#352062"/>
</g>
<g filter="url(#filter1_d_1921_3670)">
<path d="M34.9152 10.0004L58.0909 10L61 18.0384L55.5374 28.9996L32.103 29L29 20.8447L34.9152 10.0004Z" fill="#352062"/>
<path d="M29.5492 20.8821L35.212 10.5004L57.7401 10.5L60.4569 18.0071L55.2279 28.4996L32.4478 28.5L29.5492 20.8821Z" stroke="#895FE3"/>
</g>
<path d="M35.3616 11L47 11L49.4626 18.0388L44 28H32.7874L30 21L35.3616 11Z" fill="#4C3382"/>
<defs>
<filter id="filter0_b_1921_3670" x="-20" y="-7" width="62" height="53" filterUnits="userSpaceOnUse" color-interpolation-filters="sRGB">
<feFlood flood-opacity="0" result="BackgroundImageFix"/>
<feGaussianBlur in="BackgroundImageFix" stdDeviation="10"/>
<feComposite in2="SourceAlpha" operator="in" result="effect1_backgroundBlur_1921_3670"/>
<feBlend mode="normal" in="SourceGraphic" in2="effect1_backgroundBlur_1921_3670" result="shape"/>
</filter>
<filter id="filter1_d_1921_3670" x="19" y="0" width="52" height="39" filterUnits="userSpaceOnUse" color-interpolation-filters="sRGB">
<feFlood flood-opacity="0" result="BackgroundImageFix"/>
<feColorMatrix in="SourceAlpha" type="matrix" values="0 0 0 0 0 0 0 0 0 0 0 0 0 0 0 0 0 0 127 0" result="hardAlpha"/>
<feOffset/>
<feGaussianBlur stdDeviation="5"/>
<feComposite in2="hardAlpha" operator="out"/>
<feColorMatrix type="matrix" values="0 0 0 0 0.538196 0 0 0 0 0.372549 0 0 0 0 0.890196 0 0 0 0.6 0"/>
<feBlend mode="normal" in2="BackgroundImageFix" result="effect1_dropShadow_1921_3670"/>
<feBlend mode="normal" in="SourceGraphic" in2="effect1_dropShadow_1921_3670" result="shape"/>
</filter>
</defs>
</svg>
