<svg width="271" height="48" viewBox="0 0 271 48" fill="none" xmlns="http://www.w3.org/2000/svg">
<g filter="url(#filter0_d_1946_2)">
<g filter="url(#filter1_b_1946_2)">
<path d="M17.1543 0.12207L263.914 0.12207L267 13.8215L255.272 39.2632H8.2037L4.5 27.1294L17.1543 0.12207Z" fill="url(#paint0_linear_1946_2)"/>
<path d="M5.03437 27.1674L17.4722 0.62207H263.514L266.475 13.766L254.952 38.7632H8.57386L5.03437 27.1674Z" stroke="url(#paint1_linear_1946_2)"/>
</g>
<path d="M33.8 13.8L39.384 13.816C42.472 13.816 44.984 16.312 44.984 19.4C44.984 20.776 44.488 22.04 43.656 23.016C43.56 23.128 43.448 23.24 43.336 23.352C42.328 24.376 40.936 25 39.4 25H33.8V13.8ZM35.784 15.816V23.016H39.384C41.368 23.016 42.984 21.4 42.984 19.416C42.984 17.432 41.368 15.816 39.384 15.816H35.784ZM51.8129 13.8C54.9009 13.8 57.4129 16.312 57.4129 19.4C57.4129 22.488 54.9009 25 51.8129 25C48.7249 25 46.2129 22.488 46.2129 19.4C46.2129 16.312 48.7249 13.8 51.8129 13.8ZM51.8129 23C53.7969 23 55.4129 21.384 55.4129 19.4C55.4129 17.416 53.7969 15.8 51.8129 15.8C49.8289 15.8 48.2129 17.416 48.2129 19.4C48.2129 21.384 49.8289 23 51.8129 23ZM71.4418 13.8L68.8178 22.584L68.0978 25L66.6258 22.952L64.4018 19.896L62.1938 22.952L60.7218 24.984L60.0018 22.584L57.3938 13.8H59.4738L61.4898 20.552L63.1858 18.2L63.5058 17.752L64.4178 16.504L65.3298 17.752L65.6498 18.2L67.3458 20.552L69.3618 13.8H71.4418ZM82.2344 13.8L84.2344 13.816V25.016L82.2344 23.48L75.0344 17.928V25.016H73.0344V13.848L75.0344 15.384L82.2344 20.936V13.8ZM89.1913 23L95.0633 23.016V25.016H89.3833C88.8233 25.016 88.2953 24.888 87.8153 24.648C87.1113 24.296 86.5353 23.72 86.1993 23.016C85.9593 22.536 85.8313 22.008 85.8313 21.448V13.816H87.8313V21.64C87.9273 22.344 88.4873 22.904 89.1913 23ZM100.641 13.8C103.729 13.8 106.241 16.312 106.241 19.4C106.241 22.488 103.729 25 100.641 25C97.553 25 95.041 22.488 95.041 19.4C95.041 16.312 97.553 13.8 100.641 13.8ZM100.641 23C102.625 23 104.241 21.384 104.241 19.4C104.241 17.416 102.625 15.8 100.641 15.8C98.657 15.8 97.041 17.416 97.041 19.4C97.041 21.384 98.657 23 100.641 23ZM115.81 23L116.834 25H114.594L113.57 23L111.122 18.2L108.674 23L107.65 25H105.41L106.434 23L111.122 13.8L115.81 23ZM123.4 13.8L123.384 13.816C126.472 13.816 128.984 16.312 128.984 19.4C128.984 20.776 128.488 22.04 127.656 23.016C127.56 23.128 127.448 23.24 127.336 23.352C126.328 24.376 124.936 25 123.4 25H117.8V13.8H123.4ZM123.384 23.016C125.368 23.016 126.984 21.4 126.984 19.416C126.984 17.432 125.368 15.816 123.384 15.816H119.784V23.016H123.384ZM141.754 23L147.626 23.016V25.016H141.946C141.386 25.016 140.858 24.888 140.378 24.648C139.674 24.296 139.098 23.72 138.762 23.016C138.522 22.536 138.394 22.008 138.394 21.448V13.816H140.394V21.64C140.49 22.344 141.05 22.904 141.754 23ZM158.982 23L160.006 25H157.766L156.742 23L154.294 18.2L151.846 23L150.822 25H148.582L149.606 23L154.294 13.8L158.982 23ZM168.938 13.8H170.938V19.4C170.938 22.488 168.426 25 165.338 25C162.25 25 159.738 22.488 159.738 19.4V13.8H161.738V19.4C161.738 21.384 163.354 23 165.338 23C167.322 23 168.938 21.384 168.938 19.4V13.8ZM181.734 13.8L183.734 13.816V25.016L181.734 23.48L174.534 17.928V25.016H172.534V13.848L174.534 15.384L181.734 20.936V13.8ZM190.771 15.8C188.787 15.8 187.171 17.416 187.171 19.4C187.171 21.384 188.787 23 190.771 23H196.371V25H190.771C187.683 25 185.171 22.488 185.171 19.4C185.171 16.312 187.683 13.8 190.771 13.8H196.371V15.8H190.771ZM207.172 13.8H209.172V25H207.172V19.864H199.972V25H197.972V13.8H199.972V17.864H207.172V13.8ZM213.793 15.8C213.233 15.8 212.769 16.264 212.769 16.824V17.864H219.969V19.864H212.769V21.976C212.769 22.536 213.233 23 213.793 23H221.969V25H213.793C212.129 25 210.785 23.64 210.785 21.976V16.824C210.785 15.16 212.129 13.8 213.793 13.8H221.969V15.8H213.793ZM231.006 19.832L232.606 23.032L233.63 25.032H231.39L230.366 23.032L229.294 20.936L229.246 20.84C228.894 20.264 228.27 19.88 227.55 19.88H225.55V25.032H223.55V13.832H230.622C231.454 13.832 232.206 14.168 232.75 14.712C233.294 15.256 233.63 16.008 233.63 16.84C233.63 18.056 232.91 19.112 231.87 19.592C231.598 19.72 231.31 19.8 231.006 19.832ZM225.55 17.896L230.622 17.88C230.766 17.88 230.91 17.848 231.038 17.784C231.406 17.624 231.646 17.256 231.646 16.856C231.646 16.488 231.454 16.232 231.342 16.12C231.214 15.992 230.974 15.832 230.622 15.832H225.55V17.896Z" fill="white"/>
</g>
<defs>
<filter id="filter0_d_1946_2" x="0.5" y="0.12207" width="270.5" height="47.1406" filterUnits="userSpaceOnUse" color-interpolation-filters="sRGB">
<feFlood flood-opacity="0" result="BackgroundImageFix"/>
<feColorMatrix in="SourceAlpha" type="matrix" values="0 0 0 0 0 0 0 0 0 0 0 0 0 0 0 0 0 0 127 0" result="hardAlpha"/>
<feOffset dy="4"/>
<feGaussianBlur stdDeviation="2"/>
<feComposite in2="hardAlpha" operator="out"/>
<feColorMatrix type="matrix" values="0 0 0 0 0 0 0 0 0 0 0 0 0 0 0 0 0 0 0.25 0"/>
<feBlend mode="normal" in2="BackgroundImageFix" result="effect1_dropShadow_1946_2"/>
<feBlend mode="normal" in="SourceGraphic" in2="effect1_dropShadow_1946_2" result="shape"/>
</filter>
<filter id="filter1_b_1946_2" x="-15.5" y="-19.8779" width="302.5" height="79.1406" filterUnits="userSpaceOnUse" color-interpolation-filters="sRGB">
<feFlood flood-opacity="0" result="BackgroundImageFix"/>
<feGaussianBlur in="BackgroundImageFix" stdDeviation="10"/>
<feComposite in2="SourceAlpha" operator="in" result="effect1_backgroundBlur_1946_2"/>
<feBlend mode="normal" in="SourceGraphic" in2="effect1_backgroundBlur_1946_2" result="shape"/>
</filter>
<linearGradient id="paint0_linear_1946_2" x1="-3.62694" y1="19.9021" x2="267.813" y2="19.9021" gradientUnits="userSpaceOnUse">
<stop stop-color="#C4A9FF" stop-opacity="0.3"/>
<stop offset="1" stop-color="#895FE3"/>
</linearGradient>
<linearGradient id="paint1_linear_1946_2" x1="142" y1="20" x2="267" y2="20" gradientUnits="userSpaceOnUse">
<stop stop-color="#B71EFF"/>
<stop offset="1" stop-color="#683EC1"/>
</linearGradient>
</defs>
</svg>
