<svg width="242" height="384" viewBox="0 0 242 384" fill="none" xmlns="http://www.w3.org/2000/svg">
<g filter="url(#filter0_d_1985_54)">
<rect x="17" y="21" width="200" height="342" rx="10" fill="url(#paint0_linear_1985_54)" fill-opacity="0.5" shape-rendering="crispEdges"/>
<rect x="16.5" y="20.5" width="201" height="343" rx="10.5" stroke="#895FE3" shape-rendering="crispEdges"/>
</g>
<path d="M228.5 259V41.5C228.5 35.701 223.799 31 218 31H117H98.6676C95.857 31 93.1907 29.7555 91.3856 27.6011L81.8809 16.2567C79.8859 13.8755 76.9389 12.5 73.8324 12.5H15C9.20101 12.5 4.5 17.201 4.5 23V237C4.5 242.799 9.20101 247.5 15 247.5H68.5H133.29C135.848 247.5 138.297 248.531 140.085 250.36L155.7 266.339C157.676 268.36 160.383 269.5 163.21 269.5H218C223.799 269.5 228.5 264.799 228.5 259Z" fill="url(#paint1_linear_1985_54)" fill-opacity="0.9" stroke="#895FE3"/>
<defs>
<filter id="filter0_d_1985_54" x="0" y="0" width="242" height="384" filterUnits="userSpaceOnUse" color-interpolation-filters="sRGB">
<feFlood flood-opacity="0" result="BackgroundImageFix"/>
<feColorMatrix in="SourceAlpha" type="matrix" values="0 0 0 0 0 0 0 0 0 0 0 0 0 0 0 0 0 0 127 0" result="hardAlpha"/>
<feOffset dx="4"/>
<feGaussianBlur stdDeviation="10"/>
<feComposite in2="hardAlpha" operator="out"/>
<feColorMatrix type="matrix" values="0 0 0 0 0.538196 0 0 0 0 0.372549 0 0 0 0 0.890196 0 0 0 0.55 0"/>
<feBlend mode="normal" in2="BackgroundImageFix" result="effect1_dropShadow_1985_54"/>
<feBlend mode="normal" in="SourceGraphic" in2="effect1_dropShadow_1985_54" result="shape"/>
</filter>
<linearGradient id="paint0_linear_1985_54" x1="117.261" y1="-34.6194" x2="117.261" y2="386.668" gradientUnits="userSpaceOnUse">
<stop stop-color="#895FE3"/>
<stop offset="1" stop-color="#241D32"/>
</linearGradient>
<linearGradient id="paint1_linear_1985_54" x1="116.791" y1="-34.8944" x2="116.791" y2="327.881" gradientUnits="userSpaceOnUse">
<stop stop-color="white"/>
<stop offset="1" stop-color="white"/>
</linearGradient>
</defs>
</svg>
