<svg width="375" height="58" viewBox="0 0 375 58" fill="none" xmlns="http://www.w3.org/2000/svg">
<g filter="url(#filter0_b_1953_3)">
<path d="M12.6543 0L371.414 0L374.5 17.5L362.772 58H3.7037L0 41.5L12.6543 0Z" fill="url(#paint0_linear_1953_3)" fill-opacity="0.25"/>
<path d="M1.03361 41.5389L13.3948 1H370.575L373.475 17.4449L362.02 57H4.50412L1.03361 41.5389Z" stroke="url(#paint1_linear_1953_3)" stroke-width="2"/>
</g>
<path d="M46.8455 25.86L44.3455 25.88V25.8C44.3455 25.1 43.7655 24.52 43.0655 24.52H37.3855C36.6855 24.52 36.1055 25.1 36.1055 25.8V25.88C36.1055 26.58 36.6855 27.16 37.3855 27.16H42.4255C43.7255 27.16 44.8855 27.72 45.6855 28.6C45.7455 28.66 45.7855 28.72 45.8455 28.78C46.4655 29.54 46.8455 30.52 46.8455 31.58C46.8455 34.02 44.8655 36 42.4255 36H38.0455C35.6055 36 33.6255 34.02 33.6255 31.58H36.1255C36.1255 32.64 36.9855 33.5 38.0455 33.5H42.4255C43.4855 33.5 44.3655 32.64 44.3655 31.58C44.3655 30.52 43.4855 29.66 42.4255 29.66H37.3855C36.3655 29.66 35.4455 29.26 34.7655 28.6C34.5855 28.42 34.4255 28.22 34.2855 28C33.8655 27.4 33.6255 26.66 33.6255 25.86V25.78C33.6255 23.7 35.3055 22 37.3855 22H43.0655C45.1455 22 46.8455 23.7 46.8455 25.78V25.86ZM51.3398 36H48.8398V22H51.3398V36ZM60.332 24.5C57.852 24.5 55.832 26.52 55.832 29C55.832 31.48 57.852 33.5 60.332 33.5H64.832V30.82H60.332V28.32H67.332V36H60.332C56.472 36 53.332 32.86 53.332 29C53.332 25.14 56.472 22 60.332 22H67.332V24.5H60.332ZM80.8281 22L83.3281 22.02V36.02L80.8281 34.1L71.8281 27.16V36.02H69.3281V22.06L71.8281 23.98L80.8281 30.92V22ZM97.5703 36H95.0703V22H97.5703V36ZM111.062 22L113.563 22.02V36.02L111.062 34.1L102.063 27.16V36.02H99.5625V22.06L102.063 23.98L111.062 30.92V22ZM125.305 22.02H139.285V24.52H133.545V36.02H131.045V24.52H125.305V22.02ZM146.493 22C150.353 22 153.493 25.14 153.493 29C153.493 32.86 150.353 36 146.493 36C142.633 36 139.493 32.86 139.493 29C139.493 25.14 142.633 22 146.493 22ZM146.493 33.5C148.973 33.5 150.993 31.48 150.993 29C150.993 26.52 148.973 24.5 146.493 24.5C144.013 24.5 141.993 26.52 141.993 29C141.993 31.48 144.013 33.5 146.493 33.5ZM171.558 24.5C169.078 24.5 167.058 26.52 167.058 29C167.058 31.48 169.078 33.5 171.558 33.5H178.558V36H171.558C167.698 36 164.558 32.86 164.558 29C164.558 25.14 167.698 22 171.558 22H178.558V24.5H171.558ZM189.859 29.54L191.859 33.54L193.139 36.04H190.339L189.059 33.54L187.719 30.92L187.659 30.8C187.219 30.08 186.439 29.6 185.539 29.6H183.039V36.04H180.539V22.04H189.379C190.419 22.04 191.359 22.46 192.039 23.14C192.719 23.82 193.139 24.76 193.139 25.8C193.139 27.32 192.239 28.64 190.939 29.24C190.599 29.4 190.239 29.5 189.859 29.54ZM183.039 27.12L189.379 27.1C189.559 27.1 189.739 27.06 189.899 26.98C190.359 26.78 190.659 26.32 190.659 25.82C190.659 25.36 190.419 25.04 190.279 24.9C190.119 24.74 189.819 24.54 189.379 24.54H183.039V27.12ZM198.948 24.5C198.248 24.5 197.668 25.08 197.668 25.78V27.08H206.668V29.58H197.668V32.22C197.668 32.92 198.248 33.5 198.948 33.5H209.168V36H198.948C196.868 36 195.188 34.3 195.188 32.22V25.78C195.188 23.7 196.868 22 198.948 22H209.168V24.5H198.948ZM223.364 33.5L224.644 36H221.844L220.564 33.5L217.504 27.5L214.444 33.5L213.164 36H210.364L211.644 33.5L217.504 22L223.364 33.5ZM221.887 22.02H235.867V24.52H230.127V36.02H227.627V24.52H221.887V22.02ZM241.663 24.5C240.963 24.5 240.383 25.08 240.383 25.78V27.08H249.383V29.58H240.383V32.22C240.383 32.92 240.963 33.5 241.663 33.5H251.883V36H241.663C239.583 36 237.903 34.3 237.903 32.22V25.78C237.903 23.7 239.583 22 241.663 22H251.883V24.5H241.663ZM275.825 33.5L277.105 36H274.305L273.025 33.5L269.965 27.5L266.905 33.5L265.625 36H262.825L264.105 33.5L269.965 22L275.825 33.5ZM299.559 23.1L299.579 23.12C300.259 23.82 300.679 24.76 300.679 25.8C300.679 27.32 299.779 28.64 298.479 29.24C298.139 29.4 297.779 29.5 297.399 29.54C297.359 29.54 297.319 29.54 297.279 29.54V29.56H290.579V36H288.079V22H296.899C297.939 22 298.879 22.42 299.559 23.1ZM297.439 26.96V26.94C297.899 26.74 298.199 26.28 298.199 25.78C298.199 25.32 297.959 25 297.819 24.86C297.659 24.7 297.359 24.5 296.919 24.5H290.579V27.08H296.919C297.099 27.08 297.279 27.04 297.439 26.96ZM308.309 22C312.169 22 315.309 25.14 315.309 29C315.309 32.86 312.169 36 308.309 36C304.449 36 301.309 32.86 301.309 29C301.309 25.14 304.449 22 308.309 22ZM308.309 33.5C310.789 33.5 312.809 31.48 312.809 29C312.809 26.52 310.789 24.5 308.309 24.5C305.829 24.5 303.809 26.52 303.809 29C303.809 31.48 305.829 33.5 308.309 33.5ZM330.068 25.86L327.568 25.88V25.8C327.568 25.1 326.988 24.52 326.288 24.52H320.608C319.908 24.52 319.328 25.1 319.328 25.8V25.88C319.328 26.58 319.908 27.16 320.608 27.16H325.648C326.948 27.16 328.108 27.72 328.908 28.6C328.968 28.66 329.008 28.72 329.068 28.78C329.688 29.54 330.068 30.52 330.068 31.58C330.068 34.02 328.088 36 325.648 36H321.268C318.828 36 316.848 34.02 316.848 31.58H319.348C319.348 32.64 320.208 33.5 321.268 33.5H325.648C326.708 33.5 327.588 32.64 327.588 31.58C327.588 30.52 326.708 29.66 325.648 29.66H320.608C319.588 29.66 318.668 29.26 317.988 28.6C317.808 28.42 317.648 28.22 317.508 28C317.088 27.4 316.848 26.66 316.848 25.86V25.78C316.848 23.7 318.528 22 320.608 22H326.288C328.368 22 330.068 23.7 330.068 25.78V25.86ZM331.398 22.02H345.378V24.52H339.638V36.02H337.138V24.52H331.398V22.02Z" fill="white"/>
<defs>
<filter id="filter0_b_1953_3" x="-20" y="-20" width="414.5" height="98" filterUnits="userSpaceOnUse" color-interpolation-filters="sRGB">
<feFlood flood-opacity="0" result="BackgroundImageFix"/>
<feGaussianBlur in="BackgroundImageFix" stdDeviation="10"/>
<feComposite in2="SourceAlpha" operator="in" result="effect1_backgroundBlur_1953_3"/>
<feBlend mode="normal" in="SourceGraphic" in2="effect1_backgroundBlur_1953_3" result="shape"/>
</filter>
<linearGradient id="paint0_linear_1953_3" x1="65.0002" y1="29" x2="476" y2="29.0001" gradientUnits="userSpaceOnUse">
<stop stop-color="#3C56FF"/>
<stop offset="1" stop-color="#895FE3"/>
</linearGradient>
<linearGradient id="paint1_linear_1953_3" x1="61.0001" y1="29" x2="478" y2="29" gradientUnits="userSpaceOnUse">
<stop stop-color="#AB84FF"/>
<stop offset="1" stop-color="#3C56FF" stop-opacity="0.2"/>
</linearGradient>
</defs>
</svg>
