<svg width="21" height="20" viewBox="0 0 21 20" fill="none" xmlns="http://www.w3.org/2000/svg">
<path d="M15.5837 10.626C15.5576 8.09154 17.65 6.87867 17.7428 6.81781C16.5676 5.10067 14.7389 4.86447 14.0853 4.83839C12.5305 4.67899 11.0481 5.7542 10.2569 5.7542C9.4686 5.7542 8.24849 4.86012 6.95737 4.88331C5.25907 4.90939 3.69552 5.87157 2.82029 7.39019C1.05678 10.4506 2.36818 14.9833 4.08677 17.4684C4.92723 18.6828 5.92998 20.0463 7.24429 19.9985C8.51077 19.9478 8.98896 19.1783 10.5206 19.1783C12.0523 19.1783 12.4827 19.9985 13.8216 19.9739C15.1852 19.9478 16.0474 18.7349 16.8806 17.5177C17.8456 16.1078 18.2427 14.7413 18.2673 14.6732C18.2354 14.6558 15.6112 13.6516 15.5837 10.626Z" fill="#3E3555"/>
<path d="M13.0651 3.19374C13.7621 2.34893 14.2345 1.17229 14.1055 0C13.0984 0.0405738 11.8827 0.668019 11.1596 1.51427C10.5118 2.26344 9.94816 3.45892 10.0989 4.60803C11.2204 4.69642 12.3681 4.0371 13.0651 3.19374Z" fill="#3E3555"/>
</svg>
