<svg width="378" height="429" viewBox="0 0 378 429" fill="none" xmlns="http://www.w3.org/2000/svg">
<g filter="url(#filter0_b_2352_4448)">
<path d="M44.5 44.5L78.5012 3.60666C80.4011 1.32166 83.2188 0 86.1905 0H367.5C373.023 0 377.5 4.47715 377.5 10V346.689C377.5 349.144 376.597 351.512 374.964 353.344L340.5 392L309.977 425.712C308.081 427.806 305.389 429 302.564 429H10C4.47715 429 0 424.523 0 419L0 99.7219C0 97.3211 0.863738 95.0004 2.43342 93.1838L44.5 44.5Z" fill="url(#paint0_linear_2352_4448)" fill-opacity="0.2"/>
</g>
<defs>
<filter id="filter0_b_2352_4448" x="-20" y="-20" width="417.5" height="469" filterUnits="userSpaceOnUse" color-interpolation-filters="sRGB">
<feFlood flood-opacity="0" result="BackgroundImageFix"/>
<feGaussianBlur in="BackgroundImageFix" stdDeviation="10"/>
<feComposite in2="SourceAlpha" operator="in" result="effect1_backgroundBlur_2352_4448"/>
<feBlend mode="normal" in="SourceGraphic" in2="effect1_backgroundBlur_2352_4448" result="shape"/>
</filter>
<linearGradient id="paint0_linear_2352_4448" x1="-407.5" y1="261" x2="173.5" y2="-193.5" gradientUnits="userSpaceOnUse">
<stop stop-color="#75E8FC"/>
<stop offset="0.5" stop-color="#895FE3"/>
<stop offset="0.989583" stop-color="#C316A2"/>
</linearGradient>
</defs>
</svg>
