<svg width="69" height="39" viewBox="0 0 69 39" fill="none" xmlns="http://www.w3.org/2000/svg">
<g filter="url(#filter0_b_1921_2767)">
<path d="M51.0667 13.0003L67 13L69 18.5L65.2444 25.9999L49.1333 26.0002L47 20.4202L51.0667 13.0003Z" fill="#0C0C0C"/>
<path d="M47.5496 20.4577L51.3628 13.5003L66.6498 13.5L68.4565 18.4686L64.9356 25.4999L49.4775 25.5002L47.5496 20.4577Z" stroke="#352062"/>
</g>
<g filter="url(#filter1_d_1921_2767)">
<path d="M15.9152 10.0004L39.0909 10L42 18.0384L36.5374 28.9996L13.103 29L10 20.8447L15.9152 10.0004Z" fill="#352062"/>
<path d="M10.5492 20.8821L16.212 10.5004L38.7401 10.5L41.4569 18.0071L36.2279 28.4996L13.4478 28.5L10.5492 20.8821Z" stroke="#895FE3"/>
</g>
<path d="M16.3616 11H36.5374L39 18.0388L33.5374 28L13.7874 28L11 21L16.3616 11Z" fill="#4C3382"/>
<defs>
<filter id="filter0_b_1921_2767" x="27" y="-7" width="62" height="53" filterUnits="userSpaceOnUse" color-interpolation-filters="sRGB">
<feFlood flood-opacity="0" result="BackgroundImageFix"/>
<feGaussianBlur in="BackgroundImageFix" stdDeviation="10"/>
<feComposite in2="SourceAlpha" operator="in" result="effect1_backgroundBlur_1921_2767"/>
<feBlend mode="normal" in="SourceGraphic" in2="effect1_backgroundBlur_1921_2767" result="shape"/>
</filter>
<filter id="filter1_d_1921_2767" x="0" y="0" width="52" height="39" filterUnits="userSpaceOnUse" color-interpolation-filters="sRGB">
<feFlood flood-opacity="0" result="BackgroundImageFix"/>
<feColorMatrix in="SourceAlpha" type="matrix" values="0 0 0 0 0 0 0 0 0 0 0 0 0 0 0 0 0 0 127 0" result="hardAlpha"/>
<feOffset/>
<feGaussianBlur stdDeviation="5"/>
<feComposite in2="hardAlpha" operator="out"/>
<feColorMatrix type="matrix" values="0 0 0 0 0.538196 0 0 0 0 0.372549 0 0 0 0 0.890196 0 0 0 0.6 0"/>
<feBlend mode="normal" in2="BackgroundImageFix" result="effect1_dropShadow_1921_2767"/>
<feBlend mode="normal" in="SourceGraphic" in2="effect1_dropShadow_1921_2767" result="shape"/>
</filter>
</defs>
</svg>
