<svg width="47" height="47" viewBox="0 0 47 47" fill="none" xmlns="http://www.w3.org/2000/svg">
<g id="support 1">
<path id="Vector" fill-rule="evenodd" clip-rule="evenodd" d="M28.2422 42.7065C28.2422 41.0821 26.9253 39.7652 25.3009 39.7652H21.6991C20.919 39.7652 20.1709 40.0751 19.6193 40.6267C19.0677 41.1783 18.7578 41.9264 18.7578 42.7065C18.7578 44.331 20.0747 45.6479 21.6991 45.6479H25.3009C26.9253 45.6479 28.2422 44.331 28.2422 42.7065ZM6.18353 35.122C6.67483 35.1595 7.26921 35.1811 7.86626 35.1461C8.18433 36.7592 8.97452 38.2553 10.154 39.4349C11.7199 41.0007 13.8436 41.8804 16.058 41.8804H17.1803C17.1309 42.1512 17.1054 42.4276 17.1054 42.7065C17.1054 42.9886 17.1309 43.2648 17.1796 43.5327H16.058C13.4054 43.5327 10.8613 42.479 8.98563 40.6033C7.48925 39.1068 6.51593 37.185 6.18353 35.122ZM5.34304 33.3638C4.03851 33.1439 2.82459 32.5237 1.87697 31.576C0.675166 30.3742 0 28.7441 0 27.0445V23.1392C0 21.4396 0.675166 19.8096 1.87697 18.6077C3.07878 17.4059 4.70881 16.7307 6.40843 16.7307H6.83501C7.51688 8.12418 14.7176 1.35205 23.5 1.35205C32.2824 1.35205 39.4831 8.12418 40.165 16.7307H40.5916C42.2912 16.7307 43.9212 17.4059 45.123 18.6077C46.3248 19.8096 47 21.4396 47 23.1392V27.0445C47 28.7441 46.3248 30.3742 45.123 31.576C43.9212 32.7779 42.2912 33.453 40.5916 33.453H38.7005C37.9161 33.453 37.2804 32.8172 37.2804 32.0329V18.0699C37.2804 10.4592 31.1107 4.28955 23.5 4.28955C15.8893 4.28955 9.71964 10.4592 9.71964 18.0699V32.0329C9.71964 32.5867 9.40266 33.0665 8.94019 33.3007C7.66715 33.7424 5.69288 33.4228 5.34304 33.3638Z" fill="#895FE3"/>
</g>
</svg>
