<svg width="47" height="47" viewBox="0 0 47 47" fill="none" xmlns="http://www.w3.org/2000/svg">
<g id="task 1">
<g id="_13_task_complete">
<path id="Vector" d="M28.6406 8.8125H18.3594V2.9375H28.6406V8.8125ZM39.6562 8.8125V41.125C39.6562 42.7473 38.3411 44.0625 36.7188 44.0625H10.2812C8.65892 44.0625 7.34375 42.7473 7.34375 41.125V8.8125C7.34375 7.19017 8.65892 5.875 10.2812 5.875H15.4219V8.8125C15.4219 10.4348 16.737 11.75 18.3594 11.75H28.6406C30.263 11.75 31.5781 10.4348 31.5781 8.8125V5.875H36.7188C38.3411 5.875 39.6562 7.19017 39.6562 8.8125ZM13.3362 17.0669C13.261 17.2435 13.221 17.4331 13.2188 17.625C13.2217 18.0144 13.3742 18.3877 13.6447 18.6678C13.7875 18.7974 13.9515 18.9017 14.1294 18.9762C14.306 19.0515 14.4956 19.0915 14.6875 19.0938C14.7707 19.0979 15.3449 19.117 15.7776 18.6589C16.1786 18.2344 16.1608 17.715 16.1562 17.625C16.1506 17.2361 15.9985 16.8638 15.7303 16.5822C15.6742 16.5325 15.1364 16.0727 14.3977 16.2298C13.6767 16.383 13.3706 16.9951 13.3362 17.0669ZM31.9424 25.4622C31.404 24.8555 30.4756 24.8001 29.869 25.3385C29.8688 25.3386 29.8687 25.3388 29.8685 25.3389L20.9312 33.2701L17.155 29.7657C16.5507 29.2245 15.6221 29.2759 15.081 29.8802C14.5534 30.4695 14.5872 31.3708 15.1575 31.9189L19.9104 36.3251C20.4644 36.8386 21.3175 36.8482 21.8829 36.3472L31.819 27.5347C32.4249 26.9963 32.4802 26.0688 31.9424 25.4622ZM33.7812 17.625C33.7812 16.8138 33.1237 16.1562 32.3125 16.1562H19.0938C18.2825 16.1562 17.625 16.8138 17.625 17.625C17.625 18.4362 18.2825 19.0938 19.0938 19.0938H32.3125C33.1237 19.0938 33.7812 18.4362 33.7812 17.625Z" fill="#895FE3"/>
</g>
</g>
</svg>
