<svg width="742" height="177" viewBox="0 0 742 177" fill="none" xmlns="http://www.w3.org/2000/svg">
<g filter="url(#filter0_d_2609_70)">
<path d="M60.7706 13.2926L89.7376 13.3756C105.757 13.3756 118.788 26.3236 118.788 42.3426C118.788 49.4806 116.215 56.0376 111.899 61.1006C111.401 61.6816 110.82 62.2626 110.239 62.8436C105.01 68.1556 97.7886 71.3926 89.8206 71.3926H60.7706V13.2926ZM71.0626 23.7506V61.1006H89.7376C100.03 61.1006 108.413 52.7176 108.413 42.4256C108.413 32.1336 100.03 23.7506 89.7376 23.7506H71.0626Z" fill="white"/>
</g>
<g filter="url(#filter1_d_2609_70)">
<path d="M139.204 71H128.829V12.9H139.204V71Z" fill="white"/>
</g>
<g filter="url(#filter2_d_2609_70)">
<path d="M203.485 29.3116L193.11 29.3946V29.0626C193.11 26.1576 190.703 23.7506 187.798 23.7506H164.226C161.321 23.7506 158.914 26.1576 158.914 29.0626V29.3946C158.914 32.2996 161.321 34.7066 164.226 34.7066H185.142C190.537 34.7066 195.351 37.0306 198.671 40.6826C198.92 40.9316 199.086 41.1806 199.335 41.4296C201.908 44.5836 203.485 48.6506 203.485 53.0496C203.485 63.1756 195.268 71.3926 185.142 71.3926H166.965C156.839 71.3926 148.622 63.1756 148.622 53.0496H158.997C158.997 57.4486 162.566 61.0176 166.965 61.0176H185.142C189.541 61.0176 193.193 57.4486 193.193 53.0496C193.193 48.6506 189.541 45.0816 185.142 45.0816H164.226C159.993 45.0816 156.175 43.4216 153.353 40.6826C152.606 39.9356 151.942 39.1056 151.361 38.1926C149.618 35.7026 148.622 32.6316 148.622 29.3116V28.9796C148.622 20.3476 155.594 13.2926 164.226 13.2926H187.798C196.43 13.2926 203.485 20.3476 203.485 28.9796V29.3116Z" fill="white"/>
</g>
<g filter="url(#filter3_d_2609_70)">
<path d="M115.485 29.3116L105.11 29.3946V29.0626C105.11 26.1576 102.703 23.7506 99.7977 23.7506H76.2257C73.3207 23.7506 70.9137 26.1576 70.9137 29.0626V29.3946C70.9137 32.2996 73.3207 34.7066 76.2257 34.7066H97.1417C102.537 34.7066 107.351 37.0306 110.671 40.6826C110.92 40.9316 111.086 41.1806 111.335 41.4296C113.908 44.5836 115.485 48.6506 115.485 53.0496C115.485 63.1756 107.268 71.3926 97.1417 71.3926H78.9647C68.8387 71.3926 60.6217 63.1756 60.6217 53.0496H70.9967C70.9967 57.4486 74.5657 61.0176 78.9647 61.0176H97.1417C101.541 61.0176 105.193 57.4486 105.193 53.0496C105.193 48.6506 101.541 45.0816 97.1417 45.0816H76.2257C71.9927 45.0816 68.1747 43.4216 65.3527 40.6826C64.6057 39.9356 63.9417 39.1056 63.3607 38.1926C61.6177 35.7026 60.6217 32.6316 60.6217 29.3116V28.9796C60.6217 20.3476 67.5937 13.2926 76.2257 13.2926H99.7977C108.43 13.2926 115.485 20.3476 115.485 28.9796V29.3116Z" fill="white"/>
</g>
<g filter="url(#filter4_d_2609_70)">
<path d="M241.083 23.275C230.791 23.275 222.408 31.658 222.408 41.95C222.408 52.242 230.791 60.625 241.083 60.625H270.133V71H241.083C225.064 71 212.033 57.969 212.033 41.95C212.033 25.931 225.064 12.9 241.083 12.9H270.133V23.275H241.083Z" fill="white"/>
</g>
<g filter="url(#filter5_d_2609_70)">
<path d="M171.083 23.275C160.791 23.275 152.408 31.658 152.408 41.95C152.408 52.242 160.791 60.625 171.083 60.625H200.133V71H171.083C155.064 71 142.033 57.969 142.033 41.95C142.033 25.931 155.064 12.9 171.083 12.9H200.133V23.275H171.083Z" fill="white"/>
</g>
<g filter="url(#filter6_d_2609_70)">
<path d="M303.002 13.2926C319.021 13.2926 332.052 26.3236 332.052 42.3426C332.052 58.3616 319.021 71.3926 303.002 71.3926C286.983 71.3926 273.952 58.3616 273.952 42.3426C273.952 26.3236 286.983 13.2926 303.002 13.2926ZM303.002 61.0176C313.294 61.0176 321.677 52.6346 321.677 42.3426C321.677 32.0506 313.294 23.6676 303.002 23.6676C292.71 23.6676 284.327 32.0506 284.327 42.3426C284.327 52.6346 292.71 61.0176 303.002 61.0176Z" fill="white"/>
</g>
<g filter="url(#filter7_d_2609_70)">
<path d="M380.912 13.2926H392.532L387.22 23.6676L362.901 71.3926L338.582 23.6676L333.27 13.2926H344.89L350.202 23.6676L362.901 48.5676L375.6 23.6676L380.912 13.2926Z" fill="white"/>
</g>
<g filter="url(#filter8_d_2609_70)">
<path d="M380.912 13.2926H392.532L387.22 23.6676L362.901 71.3926L338.582 23.6676L333.27 13.2926H344.89L350.202 23.6676L362.901 48.5676L375.6 23.6676L380.912 13.2926Z" fill="white"/>
</g>
<g filter="url(#filter9_d_2609_70)">
<path d="M151.912 13.2926H163.532L158.22 23.6676L133.901 71.3926L109.582 23.6676L104.27 13.2926H115.89L121.202 23.6676L133.901 48.5676L146.6 23.6676L151.912 13.2926Z" fill="white"/>
</g>
<g filter="url(#filter10_d_2609_70)">
<path d="M413.645 23.6676C410.74 23.6676 408.333 26.0746 408.333 28.9796V34.3746H445.683V44.7496H408.333V55.7056C408.333 58.6106 410.74 61.0176 413.645 61.0176H456.058V71.3926H413.645C405.013 71.3926 398.041 64.3376 398.041 55.7056V28.9796C398.041 20.3476 405.013 13.2926 413.645 13.2926H456.058V23.6676H413.645Z" fill="white"/>
</g>
<g filter="url(#filter11_d_2609_70)">
<path d="M228.645 23.6676C225.74 23.6676 223.333 26.0746 223.333 28.9796V34.3746H260.683V44.7496H223.333V55.7056C223.333 58.6106 225.74 61.0176 228.645 61.0176H271.058V71.3926H228.645C220.013 71.3926 213.041 64.3376 213.041 55.7056V28.9796C213.041 20.3476 220.013 13.2926 228.645 13.2926H271.058V23.6676H228.645Z" fill="white"/>
</g>
<g filter="url(#filter12_d_2609_70)">
<path d="M639.645 23.6676C636.74 23.6676 634.333 26.0746 634.333 28.9796V34.3746H671.683V44.7496H634.333V55.7056C634.333 58.6106 636.74 61.0176 639.645 61.0176H682.058V71.3926H639.645C631.013 71.3926 624.041 64.3376 624.041 55.7056V28.9796C624.041 20.3476 631.013 13.2926 639.645 13.2926H682.058V23.6676H639.645Z" fill="white"/>
</g>
<g filter="url(#filter13_d_2609_70)">
<path d="M507.431 44.5836L515.731 61.1836L521.043 71.5586H509.423L504.111 61.1836L498.55 50.3106L498.301 49.8126C496.475 46.8246 493.238 44.8326 489.503 44.8326H479.128V71.5586H468.753V13.4586H505.439C509.755 13.4586 513.656 15.2016 516.478 18.0236C519.3 20.8456 521.043 24.7466 521.043 29.0626C521.043 35.3706 517.308 40.8486 511.913 43.3386C510.502 44.0026 509.008 44.4176 507.431 44.5836ZM479.128 34.5406L505.439 34.4576C506.186 34.4576 506.933 34.2916 507.597 33.9596C509.506 33.1296 510.751 31.2206 510.751 29.1456C510.751 27.2366 509.755 25.9086 509.174 25.3276C508.51 24.6636 507.265 23.8336 505.439 23.8336H479.128V34.5406Z" fill="white"/>
</g>
<g filter="url(#filter14_d_2609_70)">
<path d="M439.431 44.5836L447.731 61.1836L453.043 71.5586H441.423L436.111 61.1836L430.55 50.3106L430.301 49.8126C428.475 46.8246 425.238 44.8326 421.503 44.8326H411.128V71.5586H400.753V13.4586H437.439C441.755 13.4586 445.656 15.2016 448.478 18.0236C451.3 20.8456 453.043 24.7466 453.043 29.0626C453.043 35.3706 449.308 40.8486 443.913 43.3386C442.502 44.0026 441.008 44.4176 439.431 44.5836ZM411.128 34.5406L437.439 34.4576C438.186 34.4576 438.933 34.2916 439.597 33.9596C441.506 33.1296 442.751 31.2206 442.751 29.1456C442.751 27.2366 441.755 25.9086 441.174 25.3276C440.51 24.6636 439.265 23.8336 437.439 23.8336H411.128V34.5406Z" fill="white"/>
</g>
<g filter="url(#filter15_d_2609_70)">
<path d="M541.704 71H531.329V12.9H541.704V71Z" fill="white"/>
</g>
<g filter="url(#filter16_d_2609_70)">
<path d="M600.683 12.9L611.058 12.983V71.083L600.683 63.115L563.333 34.314V71.083H552.958V13.149L563.333 21.117L600.683 49.918V12.9Z" fill="white"/>
</g>
<g filter="url(#filter17_d_2609_70)">
<path d="M513.683 12.9L524.058 12.983V71.083L513.683 63.115L476.333 34.314V71.083H465.958V13.149L476.333 21.117L513.683 49.918V12.9Z" fill="white"/>
</g>
<g filter="url(#filter18_d_2609_70)">
<path d="M322.683 12.9L333.058 12.983V71.083L322.683 63.115L285.333 34.314V71.083H274.958V13.149L285.333 21.117L322.683 49.918V12.9Z" fill="white"/>
</g>
<g filter="url(#filter19_d_2609_70)">
<path d="M649.008 23.275C638.716 23.275 630.333 31.658 630.333 41.95C630.333 52.242 638.716 60.625 649.008 60.625H667.683V49.503H649.008V39.128H678.058V71H649.008C632.989 71 619.958 57.969 619.958 41.95C619.958 25.931 632.989 12.9 649.008 12.9H678.058V23.275H649.008Z" fill="white"/>
</g>
<g filter="url(#filter20_d_2609_70)">
<path d="M581.008 23.275C570.716 23.275 562.333 31.658 562.333 41.95C562.333 52.242 570.716 60.625 581.008 60.625H599.683V49.503H581.008V39.128H610.058V71H581.008C564.989 71 551.958 57.969 551.958 41.95C551.958 25.931 564.989 12.9 581.008 12.9H610.058V23.275H581.008Z" fill="white"/>
</g>
<g filter="url(#filter21_d_2609_70)">
<path d="M360.008 23.275C349.716 23.275 341.333 31.658 341.333 41.95C341.333 52.242 349.716 60.625 360.008 60.625H378.683V49.503H360.008V39.128H389.058V71H360.008C343.989 71 330.958 57.969 330.958 41.95C330.958 25.931 343.989 12.9 360.008 12.9H389.058V23.275H360.008Z" fill="white"/>
</g>
<g filter="url(#filter22_d_2609_70)">
<path d="M21.7706 90.3756H79.7876V100.751H55.9666V148.476H45.5916V100.751H21.7706V90.3756Z" fill="white"/>
</g>
<g filter="url(#filter23_d_2609_70)">
<path d="M135.683 89.9H146.058V148H135.683V121.357H98.3331V148H87.9581V89.9H98.3331V110.982H135.683V89.9Z" fill="white"/>
</g>
<g filter="url(#filter24_d_2609_70)">
<path d="M68.6831 89.9H79.0581V148H68.6831V121.357H31.3331V148H20.9581V89.9H31.3331V110.982H68.6831V89.9Z" fill="white"/>
</g>
<g filter="url(#filter25_d_2609_70)">
<path d="M172.645 100.668C169.74 100.668 167.333 103.075 167.333 105.98V111.375H204.683V121.75H167.333V132.706C167.333 135.611 169.74 138.018 172.645 138.018H215.058V148.393H172.645C164.013 148.393 157.041 141.338 157.041 132.706V105.98C157.041 97.3476 164.013 90.2926 172.645 90.2926H215.058V100.668H172.645Z" fill="white"/>
</g>
<g filter="url(#filter26_d_2609_70)">
<path d="M103.645 100.668C100.74 100.668 98.3331 103.075 98.3331 105.98V111.375H135.683V121.75H98.3331V132.706C98.3331 135.611 100.74 138.018 103.645 138.018H146.058V148.393H103.645C95.0131 148.393 88.0411 141.338 88.0411 132.706V105.98C88.0411 97.3476 95.0131 90.2926 103.645 90.2926H146.058V100.668H103.645Z" fill="white"/>
</g>
<g filter="url(#filter27_d_2609_70)">
<path d="M206.683 90.2926H217.058V119.343C217.058 135.362 204.027 148.393 188.008 148.393C171.989 148.393 158.958 135.362 158.958 119.343V90.2926H169.333V119.343C169.333 129.635 177.716 138.018 188.008 138.018C198.3 138.018 206.683 129.635 206.683 119.343V90.2926Z" fill="white"/>
</g>
<g filter="url(#filter28_d_2609_70)">
<path d="M305.496 90.2926H315.871V119.343C315.871 135.362 302.84 148.393 286.821 148.393C270.802 148.393 257.771 135.362 257.771 119.343V90.2926H268.146V119.343C268.146 129.635 276.529 138.018 286.821 138.018C297.113 138.018 305.496 129.635 305.496 119.343V90.2926Z" fill="white"/>
</g>
<g filter="url(#filter29_d_2609_70)">
<path d="M371.683 89.9L382.058 89.983V148.083L371.683 140.115L334.333 111.314V148.083H323.958V90.149L334.333 98.117L371.683 126.918V89.9Z" fill="white"/>
</g>
<g filter="url(#filter30_d_2609_70)">
<path d="M305.683 89.9L316.058 89.983V148.083L305.683 140.115L268.333 111.314V148.083H257.958V90.149L268.333 98.117L305.683 126.918V89.9Z" fill="white"/>
</g>
<g filter="url(#filter31_d_2609_70)">
<path d="M451.058 89.9L425.66 113.223L450.809 148H438.027L417.941 120.278L403.25 133.641V148H392.875V89.9H403.25V119.614L411.799 111.812L419.518 104.757L435.703 89.9H451.058Z" fill="white"/>
</g>
<g filter="url(#filter32_d_2609_70)">
<path d="M382.058 89.9L356.66 113.223L381.809 148H369.027L348.941 120.278L334.25 133.641V148H323.875V89.9H334.25V119.614L342.799 111.812L350.518 104.757L366.703 89.9H382.058Z" fill="white"/>
</g>
<g filter="url(#filter33_d_2609_70)">
<path d="M505.683 89.9L516.058 89.983V148.083L505.683 140.115L468.333 111.314V148.083H457.958V90.149L468.333 98.117L505.683 126.918V89.9Z" fill="white"/>
</g>
<g filter="url(#filter34_d_2609_70)">
<path d="M553.002 89.9C569.021 89.9 582.052 102.931 582.052 118.95C582.052 134.969 569.021 148 553.002 148C536.983 148 523.952 134.969 523.952 118.95C523.952 102.931 536.983 89.9 553.002 89.9ZM553.002 137.625C563.294 137.625 571.677 129.242 571.677 118.95C571.677 108.658 563.294 100.275 553.002 100.275C542.71 100.275 534.327 108.658 534.327 118.95C534.327 129.242 542.71 137.625 553.002 137.625Z" fill="white"/>
</g>
<g filter="url(#filter35_d_2609_70)">
<path d="M420.002 89.9C436.021 89.9 449.052 102.931 449.052 118.95C449.052 134.969 436.021 148 420.002 148C403.983 148 390.952 134.969 390.952 118.95C390.952 102.931 403.983 89.9 420.002 89.9ZM420.002 137.625C430.294 137.625 438.677 129.242 438.677 118.95C438.677 108.658 430.294 100.275 420.002 100.275C409.71 100.275 401.327 108.658 401.327 118.95C401.327 129.242 409.71 137.625 420.002 137.625Z" fill="white"/>
</g>
<g filter="url(#filter36_d_2609_70)">
<path d="M654.456 89.9L640.844 135.467L637.109 148L629.473 137.376L617.936 121.523L606.482 137.376L598.846 147.917L595.111 135.467L581.582 89.9H592.372L602.83 124.926L611.628 112.725L613.288 110.401L618.019 103.927L622.75 110.401L624.41 112.725L633.208 124.926L643.666 89.9H654.456Z" fill="white"/>
</g>
<g filter="url(#filter37_d_2609_70)">
<path d="M522.456 89.9L508.844 135.467L505.109 148L497.473 137.376L485.936 121.523L474.482 137.376L466.846 147.917L463.111 135.467L449.582 89.9H460.372L470.83 124.926L479.628 112.725L481.288 110.401L486.019 103.927L490.75 110.401L492.41 112.725L501.208 124.926L511.666 89.9H522.456Z" fill="white"/>
</g>
<g filter="url(#filter38_d_2609_70)">
<path d="M710.683 89.9L721.058 89.983V148.083L710.683 140.115L673.333 111.314V148.083H662.958V90.149L673.333 98.117L710.683 126.918V89.9Z" fill="white"/>
</g>
<g filter="url(#filter39_d_2609_70)">
<path d="M570.683 89.9L581.058 89.983V148.083L570.683 140.115L533.333 111.314V148.083H522.958V90.149L533.333 98.117L570.683 126.918V89.9Z" fill="white"/>
</g>
<g filter="url(#filter40_d_2609_70)">
<path d="M618.008 100.275C607.716 100.275 599.333 108.658 599.333 118.95C599.333 129.242 607.716 137.625 618.008 137.625H636.683V126.503H618.008V116.128H647.058V148H618.008C601.989 148 588.958 134.969 588.958 118.95C588.958 102.931 601.989 89.9 618.008 89.9H647.058V100.275H618.008Z" fill="white"/>
</g>
<g filter="url(#filter41_d_2609_70)">
<path d="M678.645 100.275C675.74 100.275 673.333 102.682 673.333 105.587V110.982H710.683V121.357H673.333V132.313C673.333 135.218 675.74 137.625 678.645 137.625H721.058V148H678.645C670.013 148 663.041 140.945 663.041 132.313V105.587C663.041 96.955 670.013 89.9 678.645 89.9H721.058V100.275H678.645Z" fill="white"/>
</g>
<defs>
<filter id="filter0_d_2609_70" x="40.7705" y="1.29248" width="98.0176" height="98.1001" filterUnits="userSpaceOnUse" color-interpolation-filters="sRGB">
<feFlood flood-opacity="0" result="BackgroundImageFix"/>
<feColorMatrix in="SourceAlpha" type="matrix" values="0 0 0 0 0 0 0 0 0 0 0 0 0 0 0 0 0 0 127 0" result="hardAlpha"/>
<feOffset dy="8"/>
<feGaussianBlur stdDeviation="10"/>
<feComposite in2="hardAlpha" operator="out"/>
<feColorMatrix type="matrix" values="0 0 0 0 0 0 0 0 0 0 0 0 0 0 0 0 0 0 0.25 0"/>
<feBlend mode="normal" in2="BackgroundImageFix" result="effect1_dropShadow_2609_70"/>
<feBlend mode="normal" in="SourceGraphic" in2="effect1_dropShadow_2609_70" result="shape"/>
</filter>
<filter id="filter1_d_2609_70" x="108.829" y="0.899902" width="50.375" height="98.1001" filterUnits="userSpaceOnUse" color-interpolation-filters="sRGB">
<feFlood flood-opacity="0" result="BackgroundImageFix"/>
<feColorMatrix in="SourceAlpha" type="matrix" values="0 0 0 0 0 0 0 0 0 0 0 0 0 0 0 0 0 0 127 0" result="hardAlpha"/>
<feOffset dy="8"/>
<feGaussianBlur stdDeviation="10"/>
<feComposite in2="hardAlpha" operator="out"/>
<feColorMatrix type="matrix" values="0 0 0 0 0 0 0 0 0 0 0 0 0 0 0 0 0 0 0.25 0"/>
<feBlend mode="normal" in2="BackgroundImageFix" result="effect1_dropShadow_2609_70"/>
<feBlend mode="normal" in="SourceGraphic" in2="effect1_dropShadow_2609_70" result="shape"/>
</filter>
<filter id="filter2_d_2609_70" x="128.622" y="1.29248" width="94.8623" height="98.1001" filterUnits="userSpaceOnUse" color-interpolation-filters="sRGB">
<feFlood flood-opacity="0" result="BackgroundImageFix"/>
<feColorMatrix in="SourceAlpha" type="matrix" values="0 0 0 0 0 0 0 0 0 0 0 0 0 0 0 0 0 0 127 0" result="hardAlpha"/>
<feOffset dy="8"/>
<feGaussianBlur stdDeviation="10"/>
<feComposite in2="hardAlpha" operator="out"/>
<feColorMatrix type="matrix" values="0 0 0 0 0 0 0 0 0 0 0 0 0 0 0 0 0 0 0.25 0"/>
<feBlend mode="normal" in2="BackgroundImageFix" result="effect1_dropShadow_2609_70"/>
<feBlend mode="normal" in="SourceGraphic" in2="effect1_dropShadow_2609_70" result="shape"/>
</filter>
<filter id="filter3_d_2609_70" x="40.6221" y="1.29248" width="94.8623" height="98.1001" filterUnits="userSpaceOnUse" color-interpolation-filters="sRGB">
<feFlood flood-opacity="0" result="BackgroundImageFix"/>
<feColorMatrix in="SourceAlpha" type="matrix" values="0 0 0 0 0 0 0 0 0 0 0 0 0 0 0 0 0 0 127 0" result="hardAlpha"/>
<feOffset dy="8"/>
<feGaussianBlur stdDeviation="10"/>
<feComposite in2="hardAlpha" operator="out"/>
<feColorMatrix type="matrix" values="0 0 0 0 0 0 0 0 0 0 0 0 0 0 0 0 0 0 0.25 0"/>
<feBlend mode="normal" in2="BackgroundImageFix" result="effect1_dropShadow_2609_70"/>
<feBlend mode="normal" in="SourceGraphic" in2="effect1_dropShadow_2609_70" result="shape"/>
</filter>
<filter id="filter4_d_2609_70" x="192.033" y="0.899902" width="98.1006" height="98.1001" filterUnits="userSpaceOnUse" color-interpolation-filters="sRGB">
<feFlood flood-opacity="0" result="BackgroundImageFix"/>
<feColorMatrix in="SourceAlpha" type="matrix" values="0 0 0 0 0 0 0 0 0 0 0 0 0 0 0 0 0 0 127 0" result="hardAlpha"/>
<feOffset dy="8"/>
<feGaussianBlur stdDeviation="10"/>
<feComposite in2="hardAlpha" operator="out"/>
<feColorMatrix type="matrix" values="0 0 0 0 0 0 0 0 0 0 0 0 0 0 0 0 0 0 0.25 0"/>
<feBlend mode="normal" in2="BackgroundImageFix" result="effect1_dropShadow_2609_70"/>
<feBlend mode="normal" in="SourceGraphic" in2="effect1_dropShadow_2609_70" result="shape"/>
</filter>
<filter id="filter5_d_2609_70" x="122.033" y="0.899902" width="98.1006" height="98.1001" filterUnits="userSpaceOnUse" color-interpolation-filters="sRGB">
<feFlood flood-opacity="0" result="BackgroundImageFix"/>
<feColorMatrix in="SourceAlpha" type="matrix" values="0 0 0 0 0 0 0 0 0 0 0 0 0 0 0 0 0 0 127 0" result="hardAlpha"/>
<feOffset dy="8"/>
<feGaussianBlur stdDeviation="10"/>
<feComposite in2="hardAlpha" operator="out"/>
<feColorMatrix type="matrix" values="0 0 0 0 0 0 0 0 0 0 0 0 0 0 0 0 0 0 0.25 0"/>
<feBlend mode="normal" in2="BackgroundImageFix" result="effect1_dropShadow_2609_70"/>
<feBlend mode="normal" in="SourceGraphic" in2="effect1_dropShadow_2609_70" result="shape"/>
</filter>
<filter id="filter6_d_2609_70" x="253.952" y="1.29248" width="98.0996" height="98.1001" filterUnits="userSpaceOnUse" color-interpolation-filters="sRGB">
<feFlood flood-opacity="0" result="BackgroundImageFix"/>
<feColorMatrix in="SourceAlpha" type="matrix" values="0 0 0 0 0 0 0 0 0 0 0 0 0 0 0 0 0 0 127 0" result="hardAlpha"/>
<feOffset dy="8"/>
<feGaussianBlur stdDeviation="10"/>
<feComposite in2="hardAlpha" operator="out"/>
<feColorMatrix type="matrix" values="0 0 0 0 0 0 0 0 0 0 0 0 0 0 0 0 0 0 0.25 0"/>
<feBlend mode="normal" in2="BackgroundImageFix" result="effect1_dropShadow_2609_70"/>
<feBlend mode="normal" in="SourceGraphic" in2="effect1_dropShadow_2609_70" result="shape"/>
</filter>
<filter id="filter7_d_2609_70" x="313.271" y="1.29248" width="99.2617" height="98.1001" filterUnits="userSpaceOnUse" color-interpolation-filters="sRGB">
<feFlood flood-opacity="0" result="BackgroundImageFix"/>
<feColorMatrix in="SourceAlpha" type="matrix" values="0 0 0 0 0 0 0 0 0 0 0 0 0 0 0 0 0 0 127 0" result="hardAlpha"/>
<feOffset dy="8"/>
<feGaussianBlur stdDeviation="10"/>
<feComposite in2="hardAlpha" operator="out"/>
<feColorMatrix type="matrix" values="0 0 0 0 0 0 0 0 0 0 0 0 0 0 0 0 0 0 0.25 0"/>
<feBlend mode="normal" in2="BackgroundImageFix" result="effect1_dropShadow_2609_70"/>
<feBlend mode="normal" in="SourceGraphic" in2="effect1_dropShadow_2609_70" result="shape"/>
</filter>
<filter id="filter8_d_2609_70" x="313.271" y="1.29248" width="99.2617" height="98.1001" filterUnits="userSpaceOnUse" color-interpolation-filters="sRGB">
<feFlood flood-opacity="0" result="BackgroundImageFix"/>
<feColorMatrix in="SourceAlpha" type="matrix" values="0 0 0 0 0 0 0 0 0 0 0 0 0 0 0 0 0 0 127 0" result="hardAlpha"/>
<feOffset dy="8"/>
<feGaussianBlur stdDeviation="10"/>
<feComposite in2="hardAlpha" operator="out"/>
<feColorMatrix type="matrix" values="0 0 0 0 0 0 0 0 0 0 0 0 0 0 0 0 0 0 0.25 0"/>
<feBlend mode="normal" in2="BackgroundImageFix" result="effect1_dropShadow_2609_70"/>
<feBlend mode="normal" in="SourceGraphic" in2="effect1_dropShadow_2609_70" result="shape"/>
</filter>
<filter id="filter9_d_2609_70" x="84.2705" y="1.29248" width="99.2617" height="98.1001" filterUnits="userSpaceOnUse" color-interpolation-filters="sRGB">
<feFlood flood-opacity="0" result="BackgroundImageFix"/>
<feColorMatrix in="SourceAlpha" type="matrix" values="0 0 0 0 0 0 0 0 0 0 0 0 0 0 0 0 0 0 127 0" result="hardAlpha"/>
<feOffset dy="8"/>
<feGaussianBlur stdDeviation="10"/>
<feComposite in2="hardAlpha" operator="out"/>
<feColorMatrix type="matrix" values="0 0 0 0 0 0 0 0 0 0 0 0 0 0 0 0 0 0 0.25 0"/>
<feBlend mode="normal" in2="BackgroundImageFix" result="effect1_dropShadow_2609_70"/>
<feBlend mode="normal" in="SourceGraphic" in2="effect1_dropShadow_2609_70" result="shape"/>
</filter>
<filter id="filter10_d_2609_70" x="378.041" y="1.29248" width="98.0176" height="98.1001" filterUnits="userSpaceOnUse" color-interpolation-filters="sRGB">
<feFlood flood-opacity="0" result="BackgroundImageFix"/>
<feColorMatrix in="SourceAlpha" type="matrix" values="0 0 0 0 0 0 0 0 0 0 0 0 0 0 0 0 0 0 127 0" result="hardAlpha"/>
<feOffset dy="8"/>
<feGaussianBlur stdDeviation="10"/>
<feComposite in2="hardAlpha" operator="out"/>
<feColorMatrix type="matrix" values="0 0 0 0 0 0 0 0 0 0 0 0 0 0 0 0 0 0 0.25 0"/>
<feBlend mode="normal" in2="BackgroundImageFix" result="effect1_dropShadow_2609_70"/>
<feBlend mode="normal" in="SourceGraphic" in2="effect1_dropShadow_2609_70" result="shape"/>
</filter>
<filter id="filter11_d_2609_70" x="193.041" y="1.29248" width="98.0176" height="98.1001" filterUnits="userSpaceOnUse" color-interpolation-filters="sRGB">
<feFlood flood-opacity="0" result="BackgroundImageFix"/>
<feColorMatrix in="SourceAlpha" type="matrix" values="0 0 0 0 0 0 0 0 0 0 0 0 0 0 0 0 0 0 127 0" result="hardAlpha"/>
<feOffset dy="8"/>
<feGaussianBlur stdDeviation="10"/>
<feComposite in2="hardAlpha" operator="out"/>
<feColorMatrix type="matrix" values="0 0 0 0 0 0 0 0 0 0 0 0 0 0 0 0 0 0 0.25 0"/>
<feBlend mode="normal" in2="BackgroundImageFix" result="effect1_dropShadow_2609_70"/>
<feBlend mode="normal" in="SourceGraphic" in2="effect1_dropShadow_2609_70" result="shape"/>
</filter>
<filter id="filter12_d_2609_70" x="604.041" y="1.29248" width="98.0176" height="98.1001" filterUnits="userSpaceOnUse" color-interpolation-filters="sRGB">
<feFlood flood-opacity="0" result="BackgroundImageFix"/>
<feColorMatrix in="SourceAlpha" type="matrix" values="0 0 0 0 0 0 0 0 0 0 0 0 0 0 0 0 0 0 127 0" result="hardAlpha"/>
<feOffset dy="8"/>
<feGaussianBlur stdDeviation="10"/>
<feComposite in2="hardAlpha" operator="out"/>
<feColorMatrix type="matrix" values="0 0 0 0 0 0 0 0 0 0 0 0 0 0 0 0 0 0 0.25 0"/>
<feBlend mode="normal" in2="BackgroundImageFix" result="effect1_dropShadow_2609_70"/>
<feBlend mode="normal" in="SourceGraphic" in2="effect1_dropShadow_2609_70" result="shape"/>
</filter>
<filter id="filter13_d_2609_70" x="448.753" y="1.4585" width="92.29" height="98.1001" filterUnits="userSpaceOnUse" color-interpolation-filters="sRGB">
<feFlood flood-opacity="0" result="BackgroundImageFix"/>
<feColorMatrix in="SourceAlpha" type="matrix" values="0 0 0 0 0 0 0 0 0 0 0 0 0 0 0 0 0 0 127 0" result="hardAlpha"/>
<feOffset dy="8"/>
<feGaussianBlur stdDeviation="10"/>
<feComposite in2="hardAlpha" operator="out"/>
<feColorMatrix type="matrix" values="0 0 0 0 0 0 0 0 0 0 0 0 0 0 0 0 0 0 0.25 0"/>
<feBlend mode="normal" in2="BackgroundImageFix" result="effect1_dropShadow_2609_70"/>
<feBlend mode="normal" in="SourceGraphic" in2="effect1_dropShadow_2609_70" result="shape"/>
</filter>
<filter id="filter14_d_2609_70" x="380.753" y="1.4585" width="92.29" height="98.1001" filterUnits="userSpaceOnUse" color-interpolation-filters="sRGB">
<feFlood flood-opacity="0" result="BackgroundImageFix"/>
<feColorMatrix in="SourceAlpha" type="matrix" values="0 0 0 0 0 0 0 0 0 0 0 0 0 0 0 0 0 0 127 0" result="hardAlpha"/>
<feOffset dy="8"/>
<feGaussianBlur stdDeviation="10"/>
<feComposite in2="hardAlpha" operator="out"/>
<feColorMatrix type="matrix" values="0 0 0 0 0 0 0 0 0 0 0 0 0 0 0 0 0 0 0.25 0"/>
<feBlend mode="normal" in2="BackgroundImageFix" result="effect1_dropShadow_2609_70"/>
<feBlend mode="normal" in="SourceGraphic" in2="effect1_dropShadow_2609_70" result="shape"/>
</filter>
<filter id="filter15_d_2609_70" x="511.329" y="0.899902" width="50.375" height="98.1001" filterUnits="userSpaceOnUse" color-interpolation-filters="sRGB">
<feFlood flood-opacity="0" result="BackgroundImageFix"/>
<feColorMatrix in="SourceAlpha" type="matrix" values="0 0 0 0 0 0 0 0 0 0 0 0 0 0 0 0 0 0 127 0" result="hardAlpha"/>
<feOffset dy="8"/>
<feGaussianBlur stdDeviation="10"/>
<feComposite in2="hardAlpha" operator="out"/>
<feColorMatrix type="matrix" values="0 0 0 0 0 0 0 0 0 0 0 0 0 0 0 0 0 0 0.25 0"/>
<feBlend mode="normal" in2="BackgroundImageFix" result="effect1_dropShadow_2609_70"/>
<feBlend mode="normal" in="SourceGraphic" in2="effect1_dropShadow_2609_70" result="shape"/>
</filter>
<filter id="filter16_d_2609_70" x="532.958" y="0.899902" width="98.1006" height="98.1831" filterUnits="userSpaceOnUse" color-interpolation-filters="sRGB">
<feFlood flood-opacity="0" result="BackgroundImageFix"/>
<feColorMatrix in="SourceAlpha" type="matrix" values="0 0 0 0 0 0 0 0 0 0 0 0 0 0 0 0 0 0 127 0" result="hardAlpha"/>
<feOffset dy="8"/>
<feGaussianBlur stdDeviation="10"/>
<feComposite in2="hardAlpha" operator="out"/>
<feColorMatrix type="matrix" values="0 0 0 0 0 0 0 0 0 0 0 0 0 0 0 0 0 0 0.25 0"/>
<feBlend mode="normal" in2="BackgroundImageFix" result="effect1_dropShadow_2609_70"/>
<feBlend mode="normal" in="SourceGraphic" in2="effect1_dropShadow_2609_70" result="shape"/>
</filter>
<filter id="filter17_d_2609_70" x="445.958" y="0.899902" width="98.1006" height="98.1831" filterUnits="userSpaceOnUse" color-interpolation-filters="sRGB">
<feFlood flood-opacity="0" result="BackgroundImageFix"/>
<feColorMatrix in="SourceAlpha" type="matrix" values="0 0 0 0 0 0 0 0 0 0 0 0 0 0 0 0 0 0 127 0" result="hardAlpha"/>
<feOffset dy="8"/>
<feGaussianBlur stdDeviation="10"/>
<feComposite in2="hardAlpha" operator="out"/>
<feColorMatrix type="matrix" values="0 0 0 0 0 0 0 0 0 0 0 0 0 0 0 0 0 0 0.25 0"/>
<feBlend mode="normal" in2="BackgroundImageFix" result="effect1_dropShadow_2609_70"/>
<feBlend mode="normal" in="SourceGraphic" in2="effect1_dropShadow_2609_70" result="shape"/>
</filter>
<filter id="filter18_d_2609_70" x="254.958" y="0.899902" width="98.1006" height="98.1831" filterUnits="userSpaceOnUse" color-interpolation-filters="sRGB">
<feFlood flood-opacity="0" result="BackgroundImageFix"/>
<feColorMatrix in="SourceAlpha" type="matrix" values="0 0 0 0 0 0 0 0 0 0 0 0 0 0 0 0 0 0 127 0" result="hardAlpha"/>
<feOffset dy="8"/>
<feGaussianBlur stdDeviation="10"/>
<feComposite in2="hardAlpha" operator="out"/>
<feColorMatrix type="matrix" values="0 0 0 0 0 0 0 0 0 0 0 0 0 0 0 0 0 0 0.25 0"/>
<feBlend mode="normal" in2="BackgroundImageFix" result="effect1_dropShadow_2609_70"/>
<feBlend mode="normal" in="SourceGraphic" in2="effect1_dropShadow_2609_70" result="shape"/>
</filter>
<filter id="filter19_d_2609_70" x="599.958" y="0.899902" width="98.1006" height="98.1001" filterUnits="userSpaceOnUse" color-interpolation-filters="sRGB">
<feFlood flood-opacity="0" result="BackgroundImageFix"/>
<feColorMatrix in="SourceAlpha" type="matrix" values="0 0 0 0 0 0 0 0 0 0 0 0 0 0 0 0 0 0 127 0" result="hardAlpha"/>
<feOffset dy="8"/>
<feGaussianBlur stdDeviation="10"/>
<feComposite in2="hardAlpha" operator="out"/>
<feColorMatrix type="matrix" values="0 0 0 0 0 0 0 0 0 0 0 0 0 0 0 0 0 0 0.25 0"/>
<feBlend mode="normal" in2="BackgroundImageFix" result="effect1_dropShadow_2609_70"/>
<feBlend mode="normal" in="SourceGraphic" in2="effect1_dropShadow_2609_70" result="shape"/>
</filter>
<filter id="filter20_d_2609_70" x="531.958" y="0.899902" width="98.1006" height="98.1001" filterUnits="userSpaceOnUse" color-interpolation-filters="sRGB">
<feFlood flood-opacity="0" result="BackgroundImageFix"/>
<feColorMatrix in="SourceAlpha" type="matrix" values="0 0 0 0 0 0 0 0 0 0 0 0 0 0 0 0 0 0 127 0" result="hardAlpha"/>
<feOffset dy="8"/>
<feGaussianBlur stdDeviation="10"/>
<feComposite in2="hardAlpha" operator="out"/>
<feColorMatrix type="matrix" values="0 0 0 0 0 0 0 0 0 0 0 0 0 0 0 0 0 0 0.25 0"/>
<feBlend mode="normal" in2="BackgroundImageFix" result="effect1_dropShadow_2609_70"/>
<feBlend mode="normal" in="SourceGraphic" in2="effect1_dropShadow_2609_70" result="shape"/>
</filter>
<filter id="filter21_d_2609_70" x="310.958" y="0.899902" width="98.1006" height="98.1001" filterUnits="userSpaceOnUse" color-interpolation-filters="sRGB">
<feFlood flood-opacity="0" result="BackgroundImageFix"/>
<feColorMatrix in="SourceAlpha" type="matrix" values="0 0 0 0 0 0 0 0 0 0 0 0 0 0 0 0 0 0 127 0" result="hardAlpha"/>
<feOffset dy="8"/>
<feGaussianBlur stdDeviation="10"/>
<feComposite in2="hardAlpha" operator="out"/>
<feColorMatrix type="matrix" values="0 0 0 0 0 0 0 0 0 0 0 0 0 0 0 0 0 0 0.25 0"/>
<feBlend mode="normal" in2="BackgroundImageFix" result="effect1_dropShadow_2609_70"/>
<feBlend mode="normal" in="SourceGraphic" in2="effect1_dropShadow_2609_70" result="shape"/>
</filter>
<filter id="filter22_d_2609_70" x="1.77051" y="78.3755" width="98.0176" height="98.1001" filterUnits="userSpaceOnUse" color-interpolation-filters="sRGB">
<feFlood flood-opacity="0" result="BackgroundImageFix"/>
<feColorMatrix in="SourceAlpha" type="matrix" values="0 0 0 0 0 0 0 0 0 0 0 0 0 0 0 0 0 0 127 0" result="hardAlpha"/>
<feOffset dy="8"/>
<feGaussianBlur stdDeviation="10"/>
<feComposite in2="hardAlpha" operator="out"/>
<feColorMatrix type="matrix" values="0 0 0 0 0 0 0 0 0 0 0 0 0 0 0 0 0 0 0.25 0"/>
<feBlend mode="normal" in2="BackgroundImageFix" result="effect1_dropShadow_2609_70"/>
<feBlend mode="normal" in="SourceGraphic" in2="effect1_dropShadow_2609_70" result="shape"/>
</filter>
<filter id="filter23_d_2609_70" x="67.958" y="77.8999" width="98.1006" height="98.1001" filterUnits="userSpaceOnUse" color-interpolation-filters="sRGB">
<feFlood flood-opacity="0" result="BackgroundImageFix"/>
<feColorMatrix in="SourceAlpha" type="matrix" values="0 0 0 0 0 0 0 0 0 0 0 0 0 0 0 0 0 0 127 0" result="hardAlpha"/>
<feOffset dy="8"/>
<feGaussianBlur stdDeviation="10"/>
<feComposite in2="hardAlpha" operator="out"/>
<feColorMatrix type="matrix" values="0 0 0 0 0 0 0 0 0 0 0 0 0 0 0 0 0 0 0.25 0"/>
<feBlend mode="normal" in2="BackgroundImageFix" result="effect1_dropShadow_2609_70"/>
<feBlend mode="normal" in="SourceGraphic" in2="effect1_dropShadow_2609_70" result="shape"/>
</filter>
<filter id="filter24_d_2609_70" x="0.958008" y="77.8999" width="98.1006" height="98.1001" filterUnits="userSpaceOnUse" color-interpolation-filters="sRGB">
<feFlood flood-opacity="0" result="BackgroundImageFix"/>
<feColorMatrix in="SourceAlpha" type="matrix" values="0 0 0 0 0 0 0 0 0 0 0 0 0 0 0 0 0 0 127 0" result="hardAlpha"/>
<feOffset dy="8"/>
<feGaussianBlur stdDeviation="10"/>
<feComposite in2="hardAlpha" operator="out"/>
<feColorMatrix type="matrix" values="0 0 0 0 0 0 0 0 0 0 0 0 0 0 0 0 0 0 0.25 0"/>
<feBlend mode="normal" in2="BackgroundImageFix" result="effect1_dropShadow_2609_70"/>
<feBlend mode="normal" in="SourceGraphic" in2="effect1_dropShadow_2609_70" result="shape"/>
</filter>
<filter id="filter25_d_2609_70" x="137.041" y="78.2925" width="98.0176" height="98.1001" filterUnits="userSpaceOnUse" color-interpolation-filters="sRGB">
<feFlood flood-opacity="0" result="BackgroundImageFix"/>
<feColorMatrix in="SourceAlpha" type="matrix" values="0 0 0 0 0 0 0 0 0 0 0 0 0 0 0 0 0 0 127 0" result="hardAlpha"/>
<feOffset dy="8"/>
<feGaussianBlur stdDeviation="10"/>
<feComposite in2="hardAlpha" operator="out"/>
<feColorMatrix type="matrix" values="0 0 0 0 0 0 0 0 0 0 0 0 0 0 0 0 0 0 0.25 0"/>
<feBlend mode="normal" in2="BackgroundImageFix" result="effect1_dropShadow_2609_70"/>
<feBlend mode="normal" in="SourceGraphic" in2="effect1_dropShadow_2609_70" result="shape"/>
</filter>
<filter id="filter26_d_2609_70" x="68.041" y="78.2925" width="98.0176" height="98.1001" filterUnits="userSpaceOnUse" color-interpolation-filters="sRGB">
<feFlood flood-opacity="0" result="BackgroundImageFix"/>
<feColorMatrix in="SourceAlpha" type="matrix" values="0 0 0 0 0 0 0 0 0 0 0 0 0 0 0 0 0 0 127 0" result="hardAlpha"/>
<feOffset dy="8"/>
<feGaussianBlur stdDeviation="10"/>
<feComposite in2="hardAlpha" operator="out"/>
<feColorMatrix type="matrix" values="0 0 0 0 0 0 0 0 0 0 0 0 0 0 0 0 0 0 0.25 0"/>
<feBlend mode="normal" in2="BackgroundImageFix" result="effect1_dropShadow_2609_70"/>
<feBlend mode="normal" in="SourceGraphic" in2="effect1_dropShadow_2609_70" result="shape"/>
</filter>
<filter id="filter27_d_2609_70" x="138.958" y="78.2925" width="98.1006" height="98.1001" filterUnits="userSpaceOnUse" color-interpolation-filters="sRGB">
<feFlood flood-opacity="0" result="BackgroundImageFix"/>
<feColorMatrix in="SourceAlpha" type="matrix" values="0 0 0 0 0 0 0 0 0 0 0 0 0 0 0 0 0 0 127 0" result="hardAlpha"/>
<feOffset dy="8"/>
<feGaussianBlur stdDeviation="10"/>
<feComposite in2="hardAlpha" operator="out"/>
<feColorMatrix type="matrix" values="0 0 0 0 0 0 0 0 0 0 0 0 0 0 0 0 0 0 0.25 0"/>
<feBlend mode="normal" in2="BackgroundImageFix" result="effect1_dropShadow_2609_70"/>
<feBlend mode="normal" in="SourceGraphic" in2="effect1_dropShadow_2609_70" result="shape"/>
</filter>
<filter id="filter28_d_2609_70" x="237.771" y="78.2925" width="98.1006" height="98.1001" filterUnits="userSpaceOnUse" color-interpolation-filters="sRGB">
<feFlood flood-opacity="0" result="BackgroundImageFix"/>
<feColorMatrix in="SourceAlpha" type="matrix" values="0 0 0 0 0 0 0 0 0 0 0 0 0 0 0 0 0 0 127 0" result="hardAlpha"/>
<feOffset dy="8"/>
<feGaussianBlur stdDeviation="10"/>
<feComposite in2="hardAlpha" operator="out"/>
<feColorMatrix type="matrix" values="0 0 0 0 0 0 0 0 0 0 0 0 0 0 0 0 0 0 0.25 0"/>
<feBlend mode="normal" in2="BackgroundImageFix" result="effect1_dropShadow_2609_70"/>
<feBlend mode="normal" in="SourceGraphic" in2="effect1_dropShadow_2609_70" result="shape"/>
</filter>
<filter id="filter29_d_2609_70" x="303.958" y="77.8999" width="98.1006" height="98.1831" filterUnits="userSpaceOnUse" color-interpolation-filters="sRGB">
<feFlood flood-opacity="0" result="BackgroundImageFix"/>
<feColorMatrix in="SourceAlpha" type="matrix" values="0 0 0 0 0 0 0 0 0 0 0 0 0 0 0 0 0 0 127 0" result="hardAlpha"/>
<feOffset dy="8"/>
<feGaussianBlur stdDeviation="10"/>
<feComposite in2="hardAlpha" operator="out"/>
<feColorMatrix type="matrix" values="0 0 0 0 0 0 0 0 0 0 0 0 0 0 0 0 0 0 0.25 0"/>
<feBlend mode="normal" in2="BackgroundImageFix" result="effect1_dropShadow_2609_70"/>
<feBlend mode="normal" in="SourceGraphic" in2="effect1_dropShadow_2609_70" result="shape"/>
</filter>
<filter id="filter30_d_2609_70" x="237.958" y="77.8999" width="98.1006" height="98.1831" filterUnits="userSpaceOnUse" color-interpolation-filters="sRGB">
<feFlood flood-opacity="0" result="BackgroundImageFix"/>
<feColorMatrix in="SourceAlpha" type="matrix" values="0 0 0 0 0 0 0 0 0 0 0 0 0 0 0 0 0 0 127 0" result="hardAlpha"/>
<feOffset dy="8"/>
<feGaussianBlur stdDeviation="10"/>
<feComposite in2="hardAlpha" operator="out"/>
<feColorMatrix type="matrix" values="0 0 0 0 0 0 0 0 0 0 0 0 0 0 0 0 0 0 0.25 0"/>
<feBlend mode="normal" in2="BackgroundImageFix" result="effect1_dropShadow_2609_70"/>
<feBlend mode="normal" in="SourceGraphic" in2="effect1_dropShadow_2609_70" result="shape"/>
</filter>
<filter id="filter31_d_2609_70" x="372.875" y="77.8999" width="98.1836" height="98.1001" filterUnits="userSpaceOnUse" color-interpolation-filters="sRGB">
<feFlood flood-opacity="0" result="BackgroundImageFix"/>
<feColorMatrix in="SourceAlpha" type="matrix" values="0 0 0 0 0 0 0 0 0 0 0 0 0 0 0 0 0 0 127 0" result="hardAlpha"/>
<feOffset dy="8"/>
<feGaussianBlur stdDeviation="10"/>
<feComposite in2="hardAlpha" operator="out"/>
<feColorMatrix type="matrix" values="0 0 0 0 0 0 0 0 0 0 0 0 0 0 0 0 0 0 0.25 0"/>
<feBlend mode="normal" in2="BackgroundImageFix" result="effect1_dropShadow_2609_70"/>
<feBlend mode="normal" in="SourceGraphic" in2="effect1_dropShadow_2609_70" result="shape"/>
</filter>
<filter id="filter32_d_2609_70" x="303.875" y="77.8999" width="98.1836" height="98.1001" filterUnits="userSpaceOnUse" color-interpolation-filters="sRGB">
<feFlood flood-opacity="0" result="BackgroundImageFix"/>
<feColorMatrix in="SourceAlpha" type="matrix" values="0 0 0 0 0 0 0 0 0 0 0 0 0 0 0 0 0 0 127 0" result="hardAlpha"/>
<feOffset dy="8"/>
<feGaussianBlur stdDeviation="10"/>
<feComposite in2="hardAlpha" operator="out"/>
<feColorMatrix type="matrix" values="0 0 0 0 0 0 0 0 0 0 0 0 0 0 0 0 0 0 0.25 0"/>
<feBlend mode="normal" in2="BackgroundImageFix" result="effect1_dropShadow_2609_70"/>
<feBlend mode="normal" in="SourceGraphic" in2="effect1_dropShadow_2609_70" result="shape"/>
</filter>
<filter id="filter33_d_2609_70" x="437.958" y="77.8999" width="98.1006" height="98.1831" filterUnits="userSpaceOnUse" color-interpolation-filters="sRGB">
<feFlood flood-opacity="0" result="BackgroundImageFix"/>
<feColorMatrix in="SourceAlpha" type="matrix" values="0 0 0 0 0 0 0 0 0 0 0 0 0 0 0 0 0 0 127 0" result="hardAlpha"/>
<feOffset dy="8"/>
<feGaussianBlur stdDeviation="10"/>
<feComposite in2="hardAlpha" operator="out"/>
<feColorMatrix type="matrix" values="0 0 0 0 0 0 0 0 0 0 0 0 0 0 0 0 0 0 0.25 0"/>
<feBlend mode="normal" in2="BackgroundImageFix" result="effect1_dropShadow_2609_70"/>
<feBlend mode="normal" in="SourceGraphic" in2="effect1_dropShadow_2609_70" result="shape"/>
</filter>
<filter id="filter34_d_2609_70" x="503.952" y="77.8999" width="98.0996" height="98.1001" filterUnits="userSpaceOnUse" color-interpolation-filters="sRGB">
<feFlood flood-opacity="0" result="BackgroundImageFix"/>
<feColorMatrix in="SourceAlpha" type="matrix" values="0 0 0 0 0 0 0 0 0 0 0 0 0 0 0 0 0 0 127 0" result="hardAlpha"/>
<feOffset dy="8"/>
<feGaussianBlur stdDeviation="10"/>
<feComposite in2="hardAlpha" operator="out"/>
<feColorMatrix type="matrix" values="0 0 0 0 0 0 0 0 0 0 0 0 0 0 0 0 0 0 0.25 0"/>
<feBlend mode="normal" in2="BackgroundImageFix" result="effect1_dropShadow_2609_70"/>
<feBlend mode="normal" in="SourceGraphic" in2="effect1_dropShadow_2609_70" result="shape"/>
</filter>
<filter id="filter35_d_2609_70" x="370.952" y="77.8999" width="98.0996" height="98.1001" filterUnits="userSpaceOnUse" color-interpolation-filters="sRGB">
<feFlood flood-opacity="0" result="BackgroundImageFix"/>
<feColorMatrix in="SourceAlpha" type="matrix" values="0 0 0 0 0 0 0 0 0 0 0 0 0 0 0 0 0 0 127 0" result="hardAlpha"/>
<feOffset dy="8"/>
<feGaussianBlur stdDeviation="10"/>
<feComposite in2="hardAlpha" operator="out"/>
<feColorMatrix type="matrix" values="0 0 0 0 0 0 0 0 0 0 0 0 0 0 0 0 0 0 0.25 0"/>
<feBlend mode="normal" in2="BackgroundImageFix" result="effect1_dropShadow_2609_70"/>
<feBlend mode="normal" in="SourceGraphic" in2="effect1_dropShadow_2609_70" result="shape"/>
</filter>
<filter id="filter36_d_2609_70" x="561.582" y="77.8999" width="112.874" height="98.1001" filterUnits="userSpaceOnUse" color-interpolation-filters="sRGB">
<feFlood flood-opacity="0" result="BackgroundImageFix"/>
<feColorMatrix in="SourceAlpha" type="matrix" values="0 0 0 0 0 0 0 0 0 0 0 0 0 0 0 0 0 0 127 0" result="hardAlpha"/>
<feOffset dy="8"/>
<feGaussianBlur stdDeviation="10"/>
<feComposite in2="hardAlpha" operator="out"/>
<feColorMatrix type="matrix" values="0 0 0 0 0 0 0 0 0 0 0 0 0 0 0 0 0 0 0.25 0"/>
<feBlend mode="normal" in2="BackgroundImageFix" result="effect1_dropShadow_2609_70"/>
<feBlend mode="normal" in="SourceGraphic" in2="effect1_dropShadow_2609_70" result="shape"/>
</filter>
<filter id="filter37_d_2609_70" x="429.582" y="77.8999" width="112.874" height="98.1001" filterUnits="userSpaceOnUse" color-interpolation-filters="sRGB">
<feFlood flood-opacity="0" result="BackgroundImageFix"/>
<feColorMatrix in="SourceAlpha" type="matrix" values="0 0 0 0 0 0 0 0 0 0 0 0 0 0 0 0 0 0 127 0" result="hardAlpha"/>
<feOffset dy="8"/>
<feGaussianBlur stdDeviation="10"/>
<feComposite in2="hardAlpha" operator="out"/>
<feColorMatrix type="matrix" values="0 0 0 0 0 0 0 0 0 0 0 0 0 0 0 0 0 0 0.25 0"/>
<feBlend mode="normal" in2="BackgroundImageFix" result="effect1_dropShadow_2609_70"/>
<feBlend mode="normal" in="SourceGraphic" in2="effect1_dropShadow_2609_70" result="shape"/>
</filter>
<filter id="filter38_d_2609_70" x="642.958" y="77.8999" width="98.1006" height="98.1831" filterUnits="userSpaceOnUse" color-interpolation-filters="sRGB">
<feFlood flood-opacity="0" result="BackgroundImageFix"/>
<feColorMatrix in="SourceAlpha" type="matrix" values="0 0 0 0 0 0 0 0 0 0 0 0 0 0 0 0 0 0 127 0" result="hardAlpha"/>
<feOffset dy="8"/>
<feGaussianBlur stdDeviation="10"/>
<feComposite in2="hardAlpha" operator="out"/>
<feColorMatrix type="matrix" values="0 0 0 0 0 0 0 0 0 0 0 0 0 0 0 0 0 0 0.25 0"/>
<feBlend mode="normal" in2="BackgroundImageFix" result="effect1_dropShadow_2609_70"/>
<feBlend mode="normal" in="SourceGraphic" in2="effect1_dropShadow_2609_70" result="shape"/>
</filter>
<filter id="filter39_d_2609_70" x="502.958" y="77.8999" width="98.1006" height="98.1831" filterUnits="userSpaceOnUse" color-interpolation-filters="sRGB">
<feFlood flood-opacity="0" result="BackgroundImageFix"/>
<feColorMatrix in="SourceAlpha" type="matrix" values="0 0 0 0 0 0 0 0 0 0 0 0 0 0 0 0 0 0 127 0" result="hardAlpha"/>
<feOffset dy="8"/>
<feGaussianBlur stdDeviation="10"/>
<feComposite in2="hardAlpha" operator="out"/>
<feColorMatrix type="matrix" values="0 0 0 0 0 0 0 0 0 0 0 0 0 0 0 0 0 0 0.25 0"/>
<feBlend mode="normal" in2="BackgroundImageFix" result="effect1_dropShadow_2609_70"/>
<feBlend mode="normal" in="SourceGraphic" in2="effect1_dropShadow_2609_70" result="shape"/>
</filter>
<filter id="filter40_d_2609_70" x="568.958" y="77.8999" width="98.1006" height="98.1001" filterUnits="userSpaceOnUse" color-interpolation-filters="sRGB">
<feFlood flood-opacity="0" result="BackgroundImageFix"/>
<feColorMatrix in="SourceAlpha" type="matrix" values="0 0 0 0 0 0 0 0 0 0 0 0 0 0 0 0 0 0 127 0" result="hardAlpha"/>
<feOffset dy="8"/>
<feGaussianBlur stdDeviation="10"/>
<feComposite in2="hardAlpha" operator="out"/>
<feColorMatrix type="matrix" values="0 0 0 0 0 0 0 0 0 0 0 0 0 0 0 0 0 0 0.25 0"/>
<feBlend mode="normal" in2="BackgroundImageFix" result="effect1_dropShadow_2609_70"/>
<feBlend mode="normal" in="SourceGraphic" in2="effect1_dropShadow_2609_70" result="shape"/>
</filter>
<filter id="filter41_d_2609_70" x="643.041" y="77.8999" width="98.0176" height="98.1001" filterUnits="userSpaceOnUse" color-interpolation-filters="sRGB">
<feFlood flood-opacity="0" result="BackgroundImageFix"/>
<feColorMatrix in="SourceAlpha" type="matrix" values="0 0 0 0 0 0 0 0 0 0 0 0 0 0 0 0 0 0 127 0" result="hardAlpha"/>
<feOffset dy="8"/>
<feGaussianBlur stdDeviation="10"/>
<feComposite in2="hardAlpha" operator="out"/>
<feColorMatrix type="matrix" values="0 0 0 0 0 0 0 0 0 0 0 0 0 0 0 0 0 0 0.25 0"/>
<feBlend mode="normal" in2="BackgroundImageFix" result="effect1_dropShadow_2609_70"/>
<feBlend mode="normal" in="SourceGraphic" in2="effect1_dropShadow_2609_70" result="shape"/>
</filter>
</defs>
</svg>
