<svg width="77" height="80" viewBox="0 0 77 80" fill="none" xmlns="http://www.w3.org/2000/svg">
<g filter="url(#filter0_b_738_26)">
<path d="M65.7207 0H11.2793C5.06041 0 0 5.25757 0 11.7188V68.2812C0 74.7424 5.06041 80 11.2793 80H33.9883V51.7188H24.9648V37.6562H33.9883V28.125C33.9883 20.3705 40.0597 14.0625 47.5234 14.0625H61.209V28.125H47.5234V37.6562H61.209L58.9531 51.7188H47.5234V80H65.7207C71.9396 80 77 74.7424 77 68.2812V11.7188C77 5.25757 71.9396 0 65.7207 0Z" fill="url(#paint0_linear_738_26)" fill-opacity="0.26"/>
<path d="M61.209 36.6562H48.5234V29.125H61.209H62.209V28.125V14.0625V13.0625H61.209H47.5234C39.4718 13.0625 32.9883 19.8546 32.9883 28.125V36.6562H24.9648H23.9648V37.6562V51.7188V52.7188H24.9648H32.9883V79H11.2793C5.64837 79 1 74.2265 1 68.2812V11.7188C1 5.77348 5.64837 1 11.2793 1H65.7207C71.3516 1 76 5.77348 76 11.7188V68.2812C76 74.2265 71.3516 79 65.7207 79H48.5234V52.7188H58.9531H59.8055L59.9405 51.8771L62.1964 37.8146L62.3822 36.6562H61.209Z" stroke="url(#paint1_linear_738_26)" stroke-width="2"/>
</g>
<defs>
<filter id="filter0_b_738_26" x="-20" y="-20" width="117" height="120" filterUnits="userSpaceOnUse" color-interpolation-filters="sRGB">
<feFlood flood-opacity="0" result="BackgroundImageFix"/>
<feGaussianBlur in="BackgroundImageFix" stdDeviation="10"/>
<feComposite in2="SourceAlpha" operator="in" result="effect1_backgroundBlur_738_26"/>
<feBlend mode="normal" in="SourceGraphic" in2="effect1_backgroundBlur_738_26" result="shape"/>
</filter>
<linearGradient id="paint0_linear_738_26" x1="1.62072" y1="40" x2="75.6338" y2="40" gradientUnits="userSpaceOnUse">
<stop stop-color="#3C56FF"/>
<stop offset="1" stop-color="#895FE3"/>
</linearGradient>
<linearGradient id="paint1_linear_738_26" x1="0.900402" y1="40" x2="75.994" y2="40" gradientUnits="userSpaceOnUse">
<stop stop-color="#AB84FF"/>
<stop offset="1" stop-color="#3C56FF" stop-opacity="0.2"/>
</linearGradient>
</defs>
</svg>
