<svg width="87" height="78" viewBox="0 0 87 78" fill="none" xmlns="http://www.w3.org/2000/svg">
<g filter="url(#filter0_b_738_35)">
<path d="M67.976 0H81.208L52.3 33.04L86.308 78H59.68L38.824 50.732L14.96 78H1.71999L32.64 42.66L0.0159912 0H27.32L46.172 24.924L67.976 0ZM63.332 70.08H70.664L23.336 7.504H15.468L63.332 70.08Z" fill="url(#paint0_linear_738_35)" fill-opacity="0.26"/>
<path d="M38.0715 50.0734L14.5063 77H3.92364L33.3926 43.3185L33.9315 42.7026L33.4343 42.0525L2.03964 1H26.8225L45.3744 25.5273L46.1156 26.5072L46.9246 25.5824L68.4298 1H79.0043L51.5474 32.3815L51.0114 32.9941L51.5024 33.6433L84.2977 77H60.1741L39.6183 50.1245L38.8761 49.1541L38.0715 50.0734ZM62.5377 70.6875L62.8379 71.08H63.332H70.664H72.6741L71.4616 69.4768L24.1336 6.90077L23.8335 6.504H23.336H15.468H13.4441L14.6737 8.11154L62.5377 70.6875Z" stroke="url(#paint1_linear_738_35)" stroke-width="2"/>
</g>
<defs>
<filter id="filter0_b_738_35" x="-19.984" y="-20" width="126.292" height="118" filterUnits="userSpaceOnUse" color-interpolation-filters="sRGB">
<feFlood flood-opacity="0" result="BackgroundImageFix"/>
<feGaussianBlur in="BackgroundImageFix" stdDeviation="10"/>
<feComposite in2="SourceAlpha" operator="in" result="effect1_backgroundBlur_738_35"/>
<feBlend mode="normal" in="SourceGraphic" in2="effect1_backgroundBlur_738_35" result="shape"/>
</filter>
<linearGradient id="paint0_linear_738_35" x1="1.8323" y1="39" x2="84.777" y2="39" gradientUnits="userSpaceOnUse">
<stop stop-color="#3C56FF"/>
<stop offset="1" stop-color="#895FE3"/>
</linearGradient>
<linearGradient id="paint1_linear_738_35" x1="1.02505" y1="39" x2="85.1806" y2="39" gradientUnits="userSpaceOnUse">
<stop stop-color="#AB84FF"/>
<stop offset="1" stop-color="#3C56FF" stop-opacity="0.2"/>
</linearGradient>
</defs>
</svg>
