<svg width="81" height="81" viewBox="0 0 81 81" fill="none" xmlns="http://www.w3.org/2000/svg">
<g filter="url(#filter0_b_738_31)">
<path d="M47.6191 40.5C47.6191 44.4316 44.4316 47.6191 40.5 47.6191C36.5684 47.6191 33.3809 44.4316 33.3809 40.5C33.3809 36.5684 36.5684 33.3809 40.5 33.3809C44.4316 33.3809 47.6191 36.5684 47.6191 40.5Z" fill="url(#paint0_linear_738_31)" fill-opacity="0.26"/>
<path d="M52.5234 18.9844H28.4766C23.2423 18.9844 18.9844 23.2423 18.9844 28.4766V52.5234C18.9844 57.7577 23.2423 62.0156 28.4766 62.0156H52.5234C57.7577 62.0156 62.0156 57.7577 62.0156 52.5234V28.4766C62.0156 23.2423 57.7577 18.9844 52.5234 18.9844ZM40.5 52.3652C33.9574 52.3652 28.6348 47.0426 28.6348 40.5C28.6348 33.9574 33.9574 28.6348 40.5 28.6348C47.0426 28.6348 52.3652 33.9574 52.3652 40.5C52.3652 47.0426 47.0426 52.3652 40.5 52.3652ZM54.1055 29.2676C52.7947 29.2676 51.7324 28.2053 51.7324 26.8945C51.7324 25.5838 52.7947 24.5215 54.1055 24.5215C55.4162 24.5215 56.4785 25.5838 56.4785 26.8945C56.4785 28.2053 55.4162 29.2676 54.1055 29.2676Z" fill="url(#paint1_linear_738_31)" fill-opacity="0.26"/>
<path d="M59.6426 0H21.3574C9.58118 0 0 9.58118 0 21.3574V59.6426C0 71.4188 9.58118 81 21.3574 81H59.6426C71.4188 81 81 71.4188 81 59.6426V21.3574C81 9.58118 71.4188 0 59.6426 0ZM66.7617 52.5234C66.7617 60.3743 60.3743 66.7617 52.5234 66.7617H28.4766C20.6257 66.7617 14.2383 60.3743 14.2383 52.5234V28.4766C14.2383 20.6257 20.6257 14.2383 28.4766 14.2383H52.5234C60.3743 14.2383 66.7617 20.6257 66.7617 28.4766V52.5234Z" fill="url(#paint2_linear_738_31)" fill-opacity="0.26"/>
<path d="M46.6191 40.5C46.6191 43.8793 43.8793 46.6191 40.5 46.6191C37.1207 46.6191 34.3809 43.8793 34.3809 40.5C34.3809 37.1207 37.1207 34.3809 40.5 34.3809C43.8793 34.3809 46.6191 37.1207 46.6191 40.5ZM28.4766 19.9844H52.5234C57.2055 19.9844 61.0156 23.7945 61.0156 28.4766V52.5234C61.0156 57.2055 57.2055 61.0156 52.5234 61.0156H28.4766C23.7945 61.0156 19.9844 57.2055 19.9844 52.5234V28.4766C19.9844 23.7945 23.7945 19.9844 28.4766 19.9844ZM27.6348 40.5C27.6348 47.5948 33.4052 53.3652 40.5 53.3652C47.5948 53.3652 53.3652 47.5948 53.3652 40.5C53.3652 33.4052 47.5948 27.6348 40.5 27.6348C33.4052 27.6348 27.6348 33.4052 27.6348 40.5ZM50.7324 26.8945C50.7324 28.7576 52.2424 30.2676 54.1055 30.2676C55.9685 30.2676 57.4785 28.7576 57.4785 26.8945C57.4785 25.0315 55.9685 23.5215 54.1055 23.5215C52.2424 23.5215 50.7324 25.0315 50.7324 26.8945ZM21.3574 1H59.6426C70.8665 1 80 10.1335 80 21.3574V59.6426C80 70.8665 70.8665 80 59.6426 80H21.3574C10.1335 80 1 70.8665 1 59.6426V21.3574C1 10.1335 10.1335 1 21.3574 1ZM52.5234 67.7617C60.9266 67.7617 67.7617 60.9266 67.7617 52.5234V28.4766C67.7617 20.0734 60.9266 13.2383 52.5234 13.2383H28.4766C20.0734 13.2383 13.2383 20.0734 13.2383 28.4766V52.5234C13.2383 60.9266 20.0734 67.7617 28.4766 67.7617H52.5234Z" stroke="url(#paint3_linear_738_31)" stroke-width="2"/>
</g>
<defs>
<filter id="filter0_b_738_31" x="-20" y="-20" width="121" height="121" filterUnits="userSpaceOnUse" color-interpolation-filters="sRGB">
<feFlood flood-opacity="0" result="BackgroundImageFix"/>
<feGaussianBlur in="BackgroundImageFix" stdDeviation="10"/>
<feComposite in2="SourceAlpha" operator="in" result="effect1_backgroundBlur_738_31"/>
<feBlend mode="normal" in="SourceGraphic" in2="effect1_backgroundBlur_738_31" result="shape"/>
</filter>
<linearGradient id="paint0_linear_738_31" x1="1.70492" y1="40.5" x2="79.5629" y2="40.5" gradientUnits="userSpaceOnUse">
<stop stop-color="#3C56FF"/>
<stop offset="1" stop-color="#895FE3"/>
</linearGradient>
<linearGradient id="paint1_linear_738_31" x1="1.70492" y1="40.5" x2="79.5629" y2="40.5" gradientUnits="userSpaceOnUse">
<stop stop-color="#3C56FF"/>
<stop offset="1" stop-color="#895FE3"/>
</linearGradient>
<linearGradient id="paint2_linear_738_31" x1="1.70492" y1="40.5" x2="79.5629" y2="40.5" gradientUnits="userSpaceOnUse">
<stop stop-color="#3C56FF"/>
<stop offset="1" stop-color="#895FE3"/>
</linearGradient>
<linearGradient id="paint3_linear_738_31" x1="0.947176" y1="40.5" x2="79.9417" y2="40.5" gradientUnits="userSpaceOnUse">
<stop stop-color="#AB84FF"/>
<stop offset="1" stop-color="#3C56FF" stop-opacity="0.2"/>
</linearGradient>
</defs>
</svg>
