<svg width="19" height="20" viewBox="0 0 19 20" fill="none" xmlns="http://www.w3.org/2000/svg">
<g id="web 1" clip-path="url(#clip0_490_495)">
<path id="Vector" d="M12.6979 6.25C12.0715 3.1875 10.7356 1.25 9.5 1.25C8.26441 1.25 6.92847 3.1875 6.30206 6.25H12.6979Z" fill="#3E3555"/>
<path id="Vector_2" d="M5.9375 10C5.93735 10.8361 5.99032 11.6713 6.09603 12.5H12.904C13.0097 11.6713 13.0626 10.8361 13.0625 10C13.0626 9.16388 13.0097 8.32868 12.904 7.5H6.09603C5.99032 8.32868 5.93735 9.16388 5.9375 10Z" fill="#3E3555"/>
<path id="Vector_3" d="M6.30206 13.75C6.92847 16.8125 8.26441 18.75 9.5 18.75C10.7356 18.75 12.0715 16.8125 12.6979 13.75H6.30206Z" fill="#3E3555"/>
<path id="Vector_4" d="M13.9139 6.25014H17.6545C17.0925 4.90374 16.2385 3.71473 15.1611 2.77847C14.0837 1.84222 12.8128 1.18478 11.4504 0.858887C12.5768 1.90201 13.4603 3.83076 13.9139 6.25014Z" fill="#3E3555"/>
<path id="Vector_5" d="M18.0814 7.5H14.1033C14.2013 8.32934 14.2502 9.16428 14.25 10C14.25 10.8357 14.2009 11.6707 14.1027 12.5H18.0808C18.5138 10.8645 18.5144 9.1355 18.0814 7.5Z" fill="#3E3555"/>
<path id="Vector_6" d="M11.4504 19.1412C12.813 18.8155 14.0841 18.1582 15.1618 17.2219C16.2394 16.2856 17.0936 15.0965 17.6557 13.75H13.9151C13.4603 16.1694 12.5768 18.0981 11.4504 19.1412Z" fill="#3E3555"/>
<path id="Vector_7" d="M5.08608 13.75H1.34546C1.90762 15.0965 2.76178 16.2856 3.83941 17.2219C4.91704 18.1582 6.18814 18.8155 7.55074 19.1412C6.42321 18.0981 5.53971 16.1694 5.08608 13.75Z" fill="#3E3555"/>
<path id="Vector_8" d="M7.54952 0.858887C6.18692 1.1846 4.91582 1.84196 3.83819 2.77822C2.76055 3.71449 1.9064 4.90359 1.34424 6.25014H5.08486C5.53968 3.83076 6.42318 1.90201 7.54952 0.858887Z" fill="#3E3555"/>
<path id="Vector_9" d="M4.74999 10C4.74991 9.16426 4.79909 8.32933 4.89724 7.5H0.919113C0.48611 9.1355 0.48611 10.8645 0.919113 12.5H4.89724C4.79909 11.6707 4.74991 10.8357 4.74999 10Z" fill="#3E3555"/>
</g>
<defs>
<clipPath id="clip0_490_495">
<rect width="19" height="20" fill="white"/>
</clipPath>
</defs>
</svg>
