<svg width="15" height="15" viewBox="0 0 15 15" fill="none" xmlns="http://www.w3.org/2000/svg">
<g clip-path="url(#clip0_141_947)">
<path d="M0.417279 9.96734C0.147211 9.19427 -0.000150681 8.36407 -0.000150681 7.49996C-0.000150681 6.63586 0.147211 5.80566 0.417279 5.03259C0.423873 5.00937 0.431684 4.98672 0.441146 4.96493C1.48285 2.07324 4.25356 0 7.49974 0C10.7459 0 13.5167 2.07324 14.5583 4.96493C14.5678 4.98679 14.5757 5.00937 14.5822 5.03259C14.8523 5.80566 14.9996 6.63586 14.9996 7.49996C14.9996 8.36407 14.8523 9.19427 14.5822 9.96734C14.5756 9.99056 14.5678 10.0132 14.5583 10.035C13.5166 12.9268 10.7459 14.9999 7.49974 14.9999C4.25356 14.9999 1.48285 12.9267 0.441146 10.035C0.431684 10.0132 0.423873 9.99063 0.417279 9.96734ZM7.49974 13.9249C7.78536 13.9249 8.24587 13.408 8.63076 12.2532C8.81654 11.6959 8.96526 11.0553 9.07363 10.3584H5.92585C6.03422 11.0553 6.18295 11.6958 6.36866 12.2532C6.75362 13.408 7.21412 13.9249 7.49974 13.9249ZM9.20408 9.28328C9.25575 8.71004 9.28306 8.11199 9.28306 7.49996C9.28306 6.88794 9.25575 6.28989 9.20408 5.71664H5.79548C5.7438 6.28989 5.71649 6.88794 5.71649 7.49996C5.71649 8.11199 5.7438 8.71004 5.79548 9.28328H9.20408ZM13.9246 7.50004C13.9246 6.88149 13.8365 6.28315 13.6726 5.71672H10.2824C10.3327 6.30179 10.3582 6.90141 10.3582 7.50004C10.3582 8.09866 10.3327 8.69828 10.2824 9.28336H13.6726C13.8365 8.71684 13.9246 8.11858 13.9246 7.50004ZM7.49974 1.07511C7.21412 1.07511 6.75354 1.59202 6.36866 2.74683C6.18295 3.3041 6.03415 3.94472 5.92585 4.64153H9.0737C8.96533 3.94465 8.81661 3.3041 8.63083 2.74683C8.24587 1.59202 7.78536 1.07511 7.49974 1.07511ZM4.71714 5.71672H1.32696C1.16305 6.28315 1.07496 6.88149 1.07496 7.50004C1.07496 8.11858 1.16305 8.71692 1.32696 9.28336H4.71714C4.6669 8.69828 4.64138 8.09866 4.64138 7.50004C4.64138 6.90141 4.6669 6.30179 4.71714 5.71672ZM1.74705 4.64161H4.84049C5.03172 3.32302 5.35977 2.14004 5.81999 1.29845C4.03567 1.78217 2.55739 3.01719 1.74705 4.64161ZM9.17956 1.29837C9.63978 2.13997 9.96783 3.32295 10.1591 4.64161H13.2525C12.4421 3.01719 10.9639 1.78217 9.17956 1.29837ZM13.2525 10.3584H10.1591C9.96783 11.677 9.63978 12.86 9.17956 13.7016C10.9639 13.2178 12.4421 11.9829 13.2525 10.3584ZM5.81999 13.7016C5.35977 12.86 5.03172 11.6771 4.84049 10.3584H1.74705C2.55739 11.9829 4.03567 13.2178 5.81999 13.7016Z" fill="white"/>
</g>
<defs>
<clipPath id="clip0_141_947">
<rect width="15" height="15" fill="white" transform="matrix(-1 0 0 1 15 0)"/>
</clipPath>
</defs>
</svg>
